<svg width="22" height="22" viewBox="0 0 22 22" fill="none" xmlns="http://www.w3.org/2000/svg">
<path d="M11 20.1666C12.813 20.1666 14.5853 19.629 16.0928 18.6217C17.6002 17.6145 18.7751 16.1828 19.4689 14.5079C20.1627 12.8329 20.3443 10.9898 19.9906 9.21159C19.6369 7.43344 18.7638 5.80009 17.4819 4.51811C16.1999 3.23613 14.5665 2.36309 12.7884 2.00939C11.0102 1.65569 9.1671 1.83722 7.49211 2.53103C5.81712 3.22483 4.38548 4.39974 3.37824 5.9072C2.37099 7.41465 1.83337 9.18693 1.83337 10.9999C1.84039 13.4289 2.80841 15.7564 4.52598 17.474C6.24354 19.1916 8.57105 20.1596 11 20.1666V20.1666Z" stroke="#292D32" stroke-width="1.5" stroke-linecap="round" stroke-linejoin="round"/>
<path d="M11 7.33325V11.9166" stroke="#292D32" stroke-width="1.5" stroke-linecap="round" stroke-linejoin="round"/>
<path d="M10.9955 14.6667H11.0045" stroke="#292D32" stroke-width="2" stroke-linecap="round" stroke-linejoin="round"/>
</svg>
