<svg width="19" height="20" viewBox="0 0 19 20" fill="none" xmlns="http://www.w3.org/2000/svg">
<path d="M11.0587 5.83333V0.383333C11.8972 0.674446 12.6588 1.12609 13.2931 1.70833L16.4511 4.61333C17.0851 5.19573 17.5768 5.89575 17.8932 6.66667H11.9651C11.7247 6.66667 11.4942 6.57887 11.3242 6.42259C11.1542 6.26631 11.0587 6.05435 11.0587 5.83333ZM18.3102 8.7375V15.8333C18.3087 16.938 17.8308 17.997 16.9811 18.7782C16.1315 19.5593 14.9796 19.9987 13.778 20H4.71368C3.51212 19.9987 2.36018 19.5593 1.51055 18.7782C0.660914 17.997 0.182958 16.938 0.181519 15.8333V4.16667C0.182958 3.062 0.660914 2.00296 1.51055 1.22185C2.36018 0.440735 3.51212 0.00132321 4.71368 0L8.80623 0C8.95397 0 9.09991 0.0108333 9.24585 0.02V5.83333C9.24585 6.49637 9.53234 7.13226 10.0423 7.6011C10.5523 8.06994 11.2439 8.33333 11.9651 8.33333H18.2884C18.2984 8.4675 18.3102 8.60167 18.3102 8.7375ZM12.8716 14.1667C12.8716 13.9457 12.7761 13.7337 12.6061 13.5774C12.4361 13.4211 12.2055 13.3333 11.9651 13.3333H10.1523V11.6667C10.1523 11.4457 10.0568 11.2337 9.88679 11.0774C9.7168 10.9211 9.48625 10.8333 9.24585 10.8333C9.00545 10.8333 8.77489 10.9211 8.6049 11.0774C8.43491 11.2337 8.33941 11.4457 8.33941 11.6667V13.3333H6.52655C6.28615 13.3333 6.05559 13.4211 5.8856 13.5774C5.71561 13.7337 5.62011 13.9457 5.62012 14.1667C5.62011 14.3877 5.71561 14.5996 5.8856 14.7559C6.05559 14.9122 6.28615 15 6.52655 15H8.33941V16.6667C8.33941 16.8877 8.43491 17.0996 8.6049 17.2559C8.77489 17.4122 9.00545 17.5 9.24585 17.5C9.48625 17.5 9.7168 17.4122 9.88679 17.2559C10.0568 17.0996 10.1523 16.8877 10.1523 16.6667V15H11.9651C12.2055 15 12.4361 14.9122 12.6061 14.7559C12.7761 14.5996 12.8716 14.3877 12.8716 14.1667Z" fill="white"/>
</svg>
