
<svg width="25" height="24" viewBox="0 0 25 24" fill="none" xmlns="http://www.w3.org/2000/svg">
<path d="M9.59388 21.006C8.96508 20.972 8.37336 20.6978 7.94088 20.24C7.42347 19.7423 6.96176 19.1897 6.56388 18.592C5.94236 17.702 5.45107 16.7279 5.10488 15.699C4.71308 14.5922 4.50697 13.4281 4.49488 12.254C4.46444 11.102 4.74974 9.96356 5.31988 8.96202C5.73745 8.24012 6.33307 7.63728 7.04988 7.21102C7.75877 6.78659 8.5677 6.55813 9.39388 6.54902C10.0167 6.58587 10.6287 6.72823 11.2039 6.97002C11.6629 7.17202 12.1449 7.31402 12.6399 7.39202C13.1859 7.27764 13.7194 7.11018 14.2329 6.89202C14.8405 6.65476 15.4839 6.52188 16.1359 6.49902C16.2229 6.49902 16.3089 6.49902 16.3919 6.50902C17.8219 6.55002 19.1519 7.25202 19.9919 8.40902C19.3363 8.75965 18.7908 9.28521 18.416 9.92728C18.0412 10.5693 17.8518 11.3028 17.8689 12.046C17.8623 12.6144 17.9763 13.1776 18.2033 13.6987C18.4304 14.2198 18.7652 14.6868 19.1859 15.069C19.5688 15.4338 20.0147 15.7262 20.5019 15.932C20.4019 16.232 20.2869 16.522 20.1649 16.814C19.8879 17.4593 19.5461 18.0748 19.1449 18.651C18.7655 19.2283 18.3238 19.7622 17.8279 20.243C17.3755 20.6919 16.7725 20.9567 16.1359 20.986C15.5962 20.9621 15.0661 20.8355 14.5739 20.613C14.0431 20.3818 13.4727 20.2551 12.8939 20.24C12.2988 20.2518 11.7115 20.3777 11.1639 20.611C10.6909 20.8244 10.1856 20.9572 9.66888 21.004L9.59388 21.006ZM12.7439 6.49902C12.6689 6.49902 12.5939 6.49902 12.5189 6.49002C12.5031 6.37099 12.4948 6.25109 12.4939 6.13102C12.5266 5.13216 12.917 4.17826 13.5939 3.44302C13.9725 3.02048 14.4314 2.67749 14.9439 2.43402C15.4214 2.18818 15.9433 2.04028 16.4789 1.99902C16.4939 2.13002 16.4939 2.25802 16.4939 2.38002C16.4798 3.36319 16.1104 4.30805 15.4539 5.04002C15.136 5.46624 14.7287 5.81772 14.2605 6.06977C13.7924 6.32182 13.2747 6.46833 12.7439 6.49902Z" fill="black"/>
</svg>