
<svg width="24" height="24" viewBox="0 0 24 24" fill="none" xmlns="http://www.w3.org/2000/svg">
<path d="M6.88999 17.4899L9.18999 19.7899M19.79 14.9299C18.8135 15.904 17.5895 16.593 16.2502 16.9225C14.9109 17.2521 13.507 17.2097 12.19 16.7999L7.47999 21.4999C7.13999 21.8499 6.46999 22.0599 5.98999 21.9899L3.80999 21.6899C3.08999 21.5899 2.41999 20.9099 2.30999 20.1899L2.00999 18.0099C1.93999 17.5299 2.16999 16.8599 2.49999 16.5199L7.19999 11.8199C6.39999 9.21995 7.01999 6.26995 9.07999 4.21995C12.03 1.26995 16.82 1.26995 19.78 4.21995C22.74 7.16995 22.74 11.9799 19.79 14.9299V14.9299Z" stroke="#6C6C70" stroke-width="1.5" stroke-miterlimit="10" stroke-linecap="round" stroke-linejoin="round"/>
<path d="M14.5 11C14.8978 11 15.2794 10.842 15.5607 10.5607C15.842 10.2794 16 9.89782 16 9.5C16 9.10218 15.842 8.72064 15.5607 8.43934C15.2794 8.15804 14.8978 8 14.5 8C14.1022 8 13.7206 8.15804 13.4393 8.43934C13.158 8.72064 13 9.10218 13 9.5C13 9.89782 13.158 10.2794 13.4393 10.5607C13.7206 10.842 14.1022 11 14.5 11Z" stroke="#6C6C70" stroke-width="1.5" stroke-linecap="round" stroke-linejoin="round"/>
</svg>