<svg width="160" height="16" viewBox="0 0 160 16" fill="none" xmlns="http://www.w3.org/2000/svg">
<path d="M10.6748 2.01367H0.624987C0.287494 2.01367 0 2.29484 0 2.63713V3.74958C0 4.09187 0.287494 4.37304 0.624987 4.37304H10.6748C11.0248 4.37304 11.2998 4.09187 11.3123 3.74958V2.64935C11.3123 2.29484 11.0248 2.01367 10.6748 2.01367ZM10.6748 8.18714H0.624987C0.46249 8.18714 0.299994 8.24826 0.187496 8.37051C0.0624987 8.49275 0 8.63945 0 8.81059V9.92304C0 10.2653 0.287494 10.5465 0.624987 10.5465H10.6748C11.0248 10.5465 11.2998 10.2776 11.3123 9.92304V8.81059C11.2998 8.45608 11.0248 8.18714 10.6748 8.18714ZM6.28737 11.2678H0.624987C0.46249 11.2678 0.299994 11.3289 0.187496 11.4511C0.0749985 11.5734 0 11.7201 0 11.8912V13.0037C0 13.3459 0.287494 13.6271 0.624987 13.6271H6.27487C6.62486 13.6271 6.89986 13.346 6.89986 13.0159V11.9034C6.91236 11.5367 6.63736 11.2555 6.28737 11.2678ZM11.3123 5.09429H0.624987C0.46249 5.09429 0.299994 5.15541 0.187496 5.27766C0.0749985 5.39991 0 5.5466 0 5.71775V6.8302C0 7.17249 0.287494 7.45366 0.624987 7.45366H11.2998C11.6498 7.45366 11.9248 7.17249 11.9248 6.8302V5.71775C11.9373 5.37546 11.6498 5.10651 11.3123 5.09429Z" fill="#00C3F7"/>
<path d="M22.9987 4.50735C22.6862 4.18951 22.3237 3.94502 21.9112 3.77387C21.4988 3.60273 21.0613 3.51715 20.6113 3.51715C20.1738 3.50493 19.7488 3.60273 19.3488 3.7861C19.0863 3.90834 18.8488 4.07949 18.6488 4.28731V4.09171C18.6488 3.99392 18.6113 3.89612 18.5488 3.82277C18.4863 3.74942 18.3863 3.70052 18.2738 3.70052H16.8863C16.7863 3.70052 16.6863 3.7372 16.6239 3.82277C16.5489 3.89612 16.5114 3.99392 16.5239 4.09171V13.2358C16.5239 13.3336 16.5614 13.4314 16.6239 13.5047C16.6988 13.5781 16.7863 13.6147 16.8863 13.6147H18.3113C18.4113 13.6147 18.4988 13.5781 18.5738 13.5047C18.6488 13.4436 18.6988 13.3458 18.6863 13.2358V10.1063C18.8863 10.3263 19.1488 10.4852 19.4363 10.583C19.8113 10.7175 20.1988 10.7908 20.5988 10.7908C21.0488 10.7908 21.4988 10.7053 21.9112 10.5341C22.3237 10.363 22.6987 10.1185 23.0112 9.80064C23.3362 9.47057 23.5862 9.07938 23.7612 8.65152C23.9612 8.17476 24.0487 7.66132 24.0362 7.14789C24.0487 6.63445 23.9487 6.12101 23.7612 5.63202C23.5737 5.22861 23.3237 4.83742 22.9987 4.50735ZM21.7237 7.82024C21.6487 8.01584 21.5363 8.18698 21.3863 8.3459C21.0988 8.65152 20.6863 8.82266 20.2613 8.82266C20.0488 8.82266 19.8363 8.78599 19.6363 8.68819C19.4488 8.60262 19.2738 8.4926 19.1238 8.3459C18.9738 8.19921 18.8613 8.01584 18.7863 7.82024C18.6238 7.4046 18.6238 6.95229 18.7863 6.53665C18.8613 6.34106 18.9863 6.16991 19.1238 6.02321C19.2738 5.87652 19.4488 5.75427 19.6363 5.6687C19.8363 5.58313 20.0488 5.53423 20.2613 5.53423C20.4863 5.53423 20.6863 5.5709 20.8988 5.6687C21.0863 5.75427 21.2613 5.86429 21.3988 6.01099C21.5487 6.15768 21.6487 6.32883 21.7362 6.52443C21.8862 6.95229 21.8737 7.4046 21.7237 7.82024ZM31.6735 3.71275H30.2611C30.1611 3.71275 30.0611 3.74942 29.9986 3.82277C29.9236 3.89612 29.8861 3.99392 29.8861 4.10394V4.27508C29.7111 4.06726 29.4861 3.90834 29.2486 3.79832C28.8611 3.61495 28.4361 3.52938 28.0111 3.52938C27.0986 3.52938 26.2362 3.8839 25.5862 4.50735C25.2487 4.83742 24.9862 5.22861 24.8112 5.65647C24.6112 6.13324 24.5112 6.64667 24.5237 7.17233C24.5112 7.68577 24.6112 8.1992 24.8112 8.68819C24.9987 9.11606 25.2487 9.50725 25.5862 9.83731C26.2237 10.473 27.0986 10.8275 27.9986 10.8275C28.4236 10.8397 28.8486 10.7419 29.2361 10.5586C29.4736 10.4363 29.7111 10.2774 29.8861 10.0818V10.2652C29.8861 10.363 29.9236 10.4608 29.9986 10.5341C30.0736 10.5952 30.1611 10.6441 30.2611 10.6441H31.6735C31.7735 10.6441 31.8735 10.6075 31.936 10.5341C32.011 10.4608 32.0485 10.363 32.0485 10.2652V4.11616C32.0485 4.01837 32.011 3.92057 31.9485 3.84722C31.8735 3.76165 31.7735 3.71275 31.6735 3.71275ZM29.7611 7.82024C29.6861 8.01584 29.5736 8.18698 29.4236 8.3459C29.2736 8.4926 29.1111 8.61484 28.9236 8.70042C28.5236 8.88379 28.0611 8.88379 27.6611 8.70042C27.4736 8.61484 27.2986 8.4926 27.1486 8.3459C26.9986 8.19921 26.8861 8.01584 26.8111 7.82024C26.6611 7.4046 26.6611 6.95229 26.8111 6.53665C26.8861 6.34106 26.9986 6.18213 27.1486 6.02321C27.2986 5.87652 27.4611 5.75427 27.6611 5.6687C28.0611 5.48533 28.5236 5.48533 28.9111 5.6687C29.0986 5.75427 29.2736 5.86429 29.4111 6.01099C29.5486 6.15768 29.6611 6.32883 29.7486 6.52443C29.9236 6.95229 29.9236 7.4046 29.7611 7.82024ZM45.7483 6.98896C45.5483 6.81782 45.3108 6.67112 45.0608 6.57332C44.7983 6.4633 44.5108 6.38995 44.2358 6.32883L43.1608 6.12101C42.8858 6.07211 42.6858 5.99876 42.5858 5.91319C42.4983 5.85207 42.4358 5.75427 42.4358 5.64425C42.4358 5.53423 42.4983 5.43643 42.6358 5.35086C42.8233 5.25306 43.0233 5.20416 43.2358 5.21638C43.5108 5.21638 43.7858 5.27751 44.0358 5.37531C44.2858 5.48533 44.5233 5.59535 44.7483 5.74205C45.0608 5.93764 45.3358 5.90097 45.5233 5.68092L46.0357 5.10636C46.1357 5.00856 46.1857 4.88632 46.1982 4.75185C46.1857 4.60515 46.1107 4.4829 45.9982 4.38511C45.7858 4.20174 45.4358 4.00614 44.9733 3.81055C44.5108 3.61495 43.9233 3.51715 43.2358 3.51715C42.8108 3.50493 42.3983 3.56605 41.9983 3.6883C41.6608 3.79832 41.3358 3.95724 41.0483 4.16506C40.7859 4.36066 40.5859 4.60515 40.4359 4.89854C40.2984 5.17971 40.2234 5.48533 40.2234 5.79095C40.2234 6.36551 40.3984 6.83004 40.7484 7.17233C41.0983 7.51462 41.5608 7.74689 42.1358 7.85691L43.2608 8.10141C43.4983 8.13808 43.7483 8.21143 43.9733 8.32145C44.0983 8.37035 44.1733 8.4926 44.1733 8.62707C44.1733 8.74932 44.1108 8.85934 43.9733 8.95714C43.8358 9.05493 43.6108 9.11606 43.3108 9.11606C43.0108 9.11606 42.6983 9.05494 42.4233 8.92046C42.1608 8.79822 41.9233 8.63929 41.6983 8.45592C41.5983 8.38258 41.4983 8.32145 41.3733 8.27255C41.2483 8.23588 41.0858 8.27255 40.9234 8.40703L40.3109 8.85934C40.1359 8.98159 40.0484 9.18941 40.0984 9.385C40.1359 9.59282 40.2984 9.78842 40.6109 10.0207C41.3858 10.5341 42.3108 10.8031 43.2483 10.7786C43.6858 10.7786 44.1233 10.7297 44.5358 10.6075C44.8983 10.4974 45.2358 10.3385 45.5358 10.1185C45.8108 9.92289 46.0357 9.66617 46.1857 9.36055C46.3357 9.06716 46.4107 8.74932 46.4107 8.41925C46.4232 8.12586 46.3607 7.83247 46.2357 7.56352C46.1107 7.36793 45.9482 7.16011 45.7483 6.98896ZM51.9231 8.66374C51.8606 8.55372 51.7481 8.48037 51.6106 8.45592C51.4856 8.45592 51.3481 8.4926 51.2481 8.56595C51.0731 8.67597 50.8731 8.73709 50.6732 8.74932C50.6107 8.74932 50.5357 8.73709 50.4732 8.72487C50.3982 8.71264 50.3357 8.67597 50.2857 8.62707C50.2232 8.56595 50.1732 8.4926 50.1357 8.41925C50.0857 8.297 50.0607 8.17476 50.0732 8.05251V5.54645H51.8981C52.0106 5.54645 52.1106 5.49755 52.1856 5.4242C52.2606 5.35086 52.3106 5.26528 52.3106 5.15526V4.09171C52.3106 3.98169 52.2731 3.88389 52.1856 3.82277C52.1106 3.74942 52.0106 3.71275 51.9106 3.71275H50.0732V2.00129C50.0732 1.9035 50.0357 1.79347 49.9607 1.73235C49.8857 1.67123 49.7982 1.63455 49.6982 1.62233H48.2732C48.1732 1.62233 48.0732 1.659 47.9982 1.73235C47.9232 1.8057 47.8732 1.9035 47.8732 2.00129V3.71275H47.0607C46.9607 3.71275 46.8607 3.74942 46.7857 3.835C46.7232 3.90834 46.6857 4.00614 46.6857 4.10394V5.16749C46.6857 5.26528 46.7232 5.36308 46.7857 5.43643C46.8482 5.522 46.9482 5.55868 47.0607 5.55868H47.8732V8.5415C47.8607 8.89601 47.9357 9.25053 48.0857 9.56837C48.2232 9.83731 48.3982 10.0696 48.6357 10.2652C48.8607 10.4485 49.1232 10.583 49.4107 10.6564C49.6982 10.7419 49.9982 10.7908 50.2982 10.7908C50.6857 10.7908 51.0856 10.7297 51.4606 10.6075C51.8106 10.4974 52.1231 10.3019 52.3731 10.0451C52.5356 9.88621 52.5481 9.62949 52.4231 9.44612L51.9231 8.66374ZM59.648 3.71275H58.2355C58.1355 3.71275 58.048 3.74942 57.973 3.82277C57.898 3.89612 57.8605 3.99392 57.8605 4.10394V4.27508C57.6855 4.06726 57.473 3.90834 57.223 3.79832C56.8355 3.61495 56.4105 3.52938 55.9855 3.52938C55.0731 3.52938 54.2106 3.8839 53.5606 4.50735C53.2231 4.83742 52.9606 5.22861 52.7856 5.65647C52.5856 6.13324 52.4856 6.64667 52.4981 7.16011C52.4856 7.67354 52.5856 8.18698 52.7856 8.67597C52.9606 9.10383 53.2356 9.49502 53.5606 9.82509C54.1981 10.4608 55.0606 10.8153 55.973 10.8153C56.398 10.8275 56.823 10.7297 57.2105 10.5586C57.4605 10.4363 57.6855 10.2774 57.8605 10.0818V10.2652C57.8605 10.363 57.898 10.4608 57.973 10.5219C58.048 10.5952 58.1355 10.6319 58.2355 10.6319H59.648C59.8605 10.6319 60.023 10.473 60.023 10.2652V4.11616C60.023 4.01837 59.9855 3.92057 59.923 3.84722C59.8605 3.76165 59.7605 3.71275 59.648 3.71275ZM57.748 7.82024C57.673 8.01584 57.5605 8.18698 57.4105 8.3459C57.2605 8.4926 57.098 8.61484 56.9105 8.70042C56.7105 8.78599 56.498 8.83489 56.273 8.83489C56.048 8.83489 55.848 8.78599 55.648 8.70042C55.4606 8.61484 55.2856 8.4926 55.1356 8.3459C54.9856 8.19921 54.8731 8.01584 54.8106 7.82024C54.6606 7.4046 54.6606 6.95229 54.8106 6.53665C54.8856 6.34106 54.9981 6.16991 55.1356 6.02321C55.2856 5.87652 55.4606 5.75427 55.648 5.6687C55.848 5.58313 56.0605 5.53423 56.273 5.53423C56.4855 5.53423 56.698 5.5709 56.9105 5.6687C57.098 5.75427 57.2605 5.86429 57.4105 6.01099C57.5605 6.15768 57.673 6.32883 57.748 6.52443C57.9105 6.94006 57.9105 7.4046 57.748 7.82024ZM67.3978 8.56595L66.5853 7.95471C66.4353 7.83246 66.2853 7.79579 66.1603 7.84469C66.0478 7.89359 65.9478 7.96694 65.8603 8.05251C65.6853 8.26033 65.4728 8.4437 65.2478 8.60262C64.9979 8.73709 64.7354 8.81044 64.4604 8.78599C64.1354 8.78599 63.8354 8.70042 63.5729 8.51705C63.3104 8.33368 63.1104 8.08918 63.0104 7.78357C62.9354 7.57575 62.8979 7.36793 62.8979 7.16011C62.8979 6.94006 62.9354 6.73224 63.0104 6.5122C63.0854 6.31661 63.1854 6.14546 63.3354 5.99876C63.4854 5.85207 63.6479 5.72982 63.8354 5.65647C64.0354 5.5709 64.2479 5.522 64.4729 5.522C64.7479 5.50978 65.0229 5.58313 65.2603 5.7176C65.4978 5.86429 65.6978 6.04766 65.8728 6.26771C65.9478 6.35328 66.0478 6.42663 66.1603 6.47553C66.2853 6.52443 66.4353 6.48775 66.5853 6.3655L67.3978 5.76649C67.4978 5.70537 67.5728 5.60758 67.6103 5.49755C67.6603 5.37531 67.6478 5.24084 67.5728 5.13081C67.2603 4.65405 66.8353 4.26286 66.3228 3.98169C65.7853 3.6883 65.1479 3.52938 64.4354 3.52938C63.9354 3.52938 63.4354 3.62718 62.9604 3.81055C62.5104 3.99392 62.1104 4.25063 61.7729 4.5807C61.4354 4.91077 61.1604 5.30196 60.9729 5.74205C60.5854 6.6589 60.5854 7.68577 60.9729 8.60262C61.1604 9.03049 61.4229 9.4339 61.7729 9.75174C62.4854 10.4363 63.4354 10.8031 64.4354 10.8031C65.1479 10.8031 65.7853 10.6441 66.3228 10.3507C66.8353 10.0696 67.2728 9.67839 67.5853 9.1894C67.6478 9.07938 67.6603 8.94491 67.6228 8.83489C67.5728 8.73709 67.4978 8.63929 67.3978 8.56595ZM74.9227 9.99623L72.6852 6.79337L74.5977 4.32398C74.6852 4.21396 74.7227 4.05504 74.6727 3.92057C74.6352 3.82277 74.5477 3.72497 74.3102 3.72497H72.7977C72.7102 3.72497 72.6227 3.74942 72.5477 3.7861C72.4477 3.835 72.3727 3.90834 72.3227 3.99392L70.7977 6.08434H70.4352V1.14557C70.4352 1.04777 70.3977 0.949971 70.3227 0.876623C70.2477 0.803275 70.1602 0.766602 70.0602 0.766602H68.6478C68.5478 0.766602 68.4478 0.803275 68.3728 0.876623C68.2978 0.949971 68.2603 1.03555 68.2603 1.14557V10.253C68.2603 10.363 68.2978 10.4485 68.3728 10.5219C68.4478 10.5952 68.5478 10.6319 68.6478 10.6319H70.0602C70.1602 10.6319 70.2602 10.5952 70.3227 10.5219C70.3977 10.4485 70.4352 10.3507 70.4352 10.253V7.84469H70.8352L72.4977 10.3385C72.5977 10.5219 72.7852 10.6319 72.9852 10.6319H74.5727C74.8102 10.6319 74.9102 10.5219 74.9602 10.4241C75.0227 10.2774 75.0102 10.1185 74.9227 9.99623ZM39.6984 3.71275H38.1109C37.9859 3.71275 37.8734 3.74942 37.7859 3.835C37.7109 3.90834 37.6609 3.99392 37.6359 4.09171L36.4609 8.3459H36.1734L34.9235 4.09171C34.8985 4.00614 34.861 3.92057 34.7985 3.835C34.7235 3.74942 34.6235 3.70052 34.511 3.70052H32.8985C32.686 3.70052 32.561 3.76165 32.4985 3.90834C32.461 4.03059 32.461 4.16506 32.4985 4.28731L34.4985 10.2774C34.536 10.363 34.5735 10.4608 34.6485 10.5219C34.7235 10.5952 34.836 10.6319 34.9485 10.6319H35.7985L35.7235 10.8275L35.536 11.3776C35.4735 11.5488 35.3735 11.6955 35.2235 11.8055C35.086 11.9033 34.9235 11.9644 34.7485 11.9522C34.5985 11.9522 34.461 11.9155 34.3235 11.8666C34.186 11.8055 34.061 11.7321 33.9485 11.6466C33.8485 11.5732 33.7235 11.5365 33.586 11.5365H33.5735C33.4235 11.5488 33.286 11.6221 33.211 11.7566L32.711 12.4778C32.511 12.7957 32.6235 12.9913 32.7485 13.1013C33.0235 13.3458 33.336 13.5292 33.686 13.6392C34.0735 13.7737 34.4735 13.8348 34.8735 13.8348C35.5985 13.8348 36.1985 13.6392 36.6609 13.2602C37.1359 12.8446 37.4984 12.3067 37.6734 11.6955L39.9984 4.28731C40.0484 4.15284 40.0609 4.01837 40.0109 3.89612C39.9984 3.81055 39.9109 3.71275 39.6984 3.71275Z" fill="#011B33"/>
<path d="M109.814 4.1416H109.839C109.989 4.1416 110.076 4.25155 110.076 4.39814V10.9825C110.076 11.0925 109.989 11.2146 109.839 11.2146C109.726 11.2146 109.601 11.1291 109.601 10.9825V4.3737C109.601 4.25155 109.689 4.1416 109.814 4.1416ZM103.4 4.48365H107.813C107.963 4.48365 108.051 4.63024 108.051 4.74018C108.051 4.85013 107.963 4.97228 107.813 4.97228H103.638V7.72086H107.413C107.526 7.72086 107.651 7.80637 107.651 7.95297C107.651 8.06291 107.563 8.18507 107.413 8.18507H103.675V11.0192C103.65 11.1657 103.525 11.2757 103.388 11.2757C103.238 11.2757 103.125 11.1657 103.125 11.0192V4.7524H103.15C103.138 4.59359 103.263 4.48365 103.4 4.48365ZM116.215 6.5237C116.215 6.37711 116.102 6.2916 115.977 6.2916C115.827 6.2916 115.74 6.40154 115.74 6.5237V9.27228C115.74 10.2129 114.952 10.9459 113.989 10.9214C112.964 10.9214 112.377 10.274 112.377 9.24785V6.5237C112.377 6.37711 112.264 6.2916 112.139 6.2916C112.026 6.2916 111.901 6.40154 111.901 6.5237V9.33336C111.901 10.4939 112.664 11.349 113.914 11.349C114.677 11.3734 115.402 10.9825 115.752 10.3228V11.0314C115.752 11.178 115.865 11.2635 115.99 11.2635C116.14 11.2635 116.227 11.1535 116.227 11.0314H116.202V6.5237H116.215ZM120.653 6.56035C120.653 6.6703 120.54 6.7558 120.415 6.7558H118.803V9.90751C118.803 10.616 119.215 10.8726 119.828 10.8726C120.028 10.8726 120.24 10.8481 120.415 10.7871C120.528 10.7871 120.615 10.8726 120.615 10.9825C120.615 11.068 120.553 11.1535 120.465 11.178C120.228 11.2635 119.965 11.2879 119.74 11.2879C118.978 11.2879 118.34 10.8603 118.34 9.95637V6.7558H117.79C117.677 6.7558 117.552 6.64586 117.552 6.5237C117.552 6.41376 117.665 6.32825 117.79 6.32825H118.34V4.97228C118.34 4.86234 118.428 4.74018 118.54 4.74018H118.565C118.678 4.74018 118.803 4.85012 118.803 4.97228V6.32825H120.415C120.54 6.32825 120.653 6.43819 120.653 6.56035ZM124.404 6.7558C124.516 6.7558 124.641 6.6703 124.641 6.56035C124.641 6.45041 124.529 6.32825 124.404 6.32825H122.791V4.97228C122.791 4.86234 122.678 4.74018 122.553 4.74018H122.528C122.416 4.74018 122.328 4.85012 122.328 4.97228V6.32825H121.778C121.666 6.32825 121.541 6.41376 121.541 6.5237C121.541 6.63365 121.653 6.7558 121.778 6.7558H122.328V9.95637C122.328 10.8603 122.966 11.2879 123.728 11.2879C123.966 11.2879 124.228 11.2635 124.454 11.178C124.541 11.1535 124.604 11.068 124.604 10.9825C124.604 10.8726 124.516 10.7871 124.404 10.7871C124.228 10.8481 124.028 10.8726 123.816 10.8726C123.203 10.8726 122.791 10.616 122.791 9.90751V6.7558H124.404ZM125.516 8.77143C125.516 7.32995 126.541 6.19388 127.917 6.19388C129.354 6.19388 130.254 7.32995 130.254 8.77143C130.254 8.88137 130.142 9.00353 130.017 9.00353H126.041C126.129 10.2251 127.041 10.9336 128.029 10.9336C128.642 10.9336 129.254 10.6771 129.667 10.2496C129.692 10.2251 129.754 10.1885 129.817 10.1885C129.929 10.1885 130.054 10.2984 130.054 10.4206C130.054 10.4817 130.029 10.5305 129.967 10.5916C129.467 11.1291 128.742 11.4101 128.004 11.3856C126.654 11.3856 125.516 10.3595 125.516 8.80808V8.77143ZM132.155 7.74529C132.48 6.92683 133.267 6.32825 134.168 6.26717C134.318 6.26717 134.43 6.37711 134.43 6.54814C134.43 6.65808 134.343 6.80467 134.193 6.80467H134.168C133.08 6.91461 132.155 7.68421 132.155 9.27228V11.0924C132.13 11.239 132.042 11.3246 131.892 11.3246C131.78 11.3246 131.655 11.2146 131.655 11.0924V6.54814C131.68 6.40155 131.767 6.31603 131.917 6.31603C132.03 6.31603 132.155 6.42598 132.155 6.54814V7.74529ZM142.144 6.01064C141.794 6.01064 141.506 6.24274 141.419 6.57257L140.569 9.2112L139.719 6.57257C139.631 6.23052 139.306 5.97399 138.931 5.97399H138.843C138.468 5.97399 138.143 6.20609 138.056 6.57257L137.206 9.18677L136.393 6.54814C136.305 6.23052 136.018 5.9862 135.668 5.9862H135.643C135.268 5.9862 134.968 6.30382 134.968 6.6703C134.968 6.78024 134.993 6.9024 135.03 7.01234L136.343 10.6771C136.43 11.0436 136.756 11.3001 137.156 11.3246H137.218C137.593 11.3246 137.918 11.068 138.031 10.7015L138.881 8.08734L139.731 10.7015C139.819 11.068 140.169 11.3246 140.544 11.3246H140.606C141.019 11.3246 141.369 11.068 141.456 10.6771L142.769 6.98791C142.794 6.9024 142.832 6.79245 142.832 6.70694V6.68251C142.819 6.30382 142.531 6.01064 142.144 6.01064ZM144.194 6.26717C144.744 6.09615 145.307 5.98621 145.895 6.01064C146.707 6.01064 147.295 6.24274 147.732 6.60922C148.145 7.0612 148.345 7.65978 148.32 8.25836V10.5794C148.32 10.9825 147.995 11.2879 147.595 11.2879C147.22 11.2879 146.895 11.0314 146.87 10.6649C146.457 11.0924 145.87 11.349 145.257 11.3123C144.294 11.3123 143.444 10.7504 143.444 9.72427C143.444 8.58819 144.319 8.05069 145.582 8.05069C146.02 8.05069 146.457 8.11177 146.87 8.24615V8.16063C146.87 7.53762 146.495 7.22001 145.732 7.22001C145.382 7.22001 145.032 7.24444 144.682 7.3666C144.619 7.39103 144.532 7.39103 144.482 7.39103C144.132 7.41546 143.844 7.15893 143.844 6.8291C143.819 6.58478 143.957 6.35268 144.194 6.26717ZM152.821 6.49927C152.908 6.18166 153.196 5.9862 153.521 5.9862C153.933 5.9862 154.246 6.30382 154.246 6.6703V6.69472C154.246 6.80467 154.221 6.92683 154.158 7.03677L152.583 10.7015C152.433 11.068 152.083 11.3001 151.708 11.3246H151.62C151.208 11.3001 150.895 11.0436 150.77 10.6771L149.133 7.01234C149.07 6.9024 149.045 6.78024 149.045 6.6703C149.07 6.26717 149.395 5.9862 149.77 5.9862C150.12 5.9862 150.408 6.21831 150.495 6.5237L151.633 9.50438L152.821 6.49927ZM154.846 8.88137C154.909 10.2984 156.159 11.4101 157.621 11.3246C158.297 11.3246 158.934 11.1291 159.459 10.7015C159.609 10.5916 159.659 10.445 159.659 10.274V10.2496C159.659 9.93194 159.397 9.68762 159.072 9.68762C158.959 9.68762 158.809 9.71206 158.722 9.79757C158.397 10.0297 158.022 10.164 157.634 10.1396C156.996 10.164 156.434 9.73649 156.346 9.11348H159.359C159.734 9.08904 160.034 8.77143 159.997 8.40495V8.29501C159.997 7.01234 158.859 5.93734 157.459 5.97399C155.909 5.97399 154.821 7.19558 154.821 8.6737V8.88137H154.846Z" fill="#10112B"/>
<path d="M126.004 8.53947C126.091 7.46447 126.879 6.63379 127.879 6.63379C129.017 6.63379 129.63 7.53777 129.692 8.53947H126.004ZM146.882 9.39458C146.882 9.95652 146.382 10.2986 145.682 10.2741C145.22 10.2741 144.87 10.042 144.87 9.65112V9.62669C144.87 9.19913 145.282 8.91816 145.92 8.91816C146.245 8.91816 146.595 9.00368 146.882 9.11362V9.39458ZM157.472 7.14686C156.859 7.14686 156.446 7.57442 156.334 8.25851H158.584C158.497 7.59885 158.084 7.14686 157.472 7.14686Z" fill="white"/>
<path d="M95.5737 0.87992C102.15 -0.0851363 97.9366 5.38759 95.8988 6.92679C97.299 7.97736 98.7367 9.45548 99.3493 11.1291C100.487 14.1953 97.6866 14.6472 95.5737 13.8776C93.2608 13.0836 91.223 11.3856 89.8728 9.3944C89.4977 9.3944 89.0851 9.33332 88.6976 9.22338C89.4602 11.3245 89.7853 13.4745 89.5727 15.2336C89.5727 11.691 87.8474 8.17281 85.3595 5.241C84.4844 4.21486 85.3845 3.45748 86.1722 4.44696C86.7097 5.1677 87.1973 5.91287 87.6349 6.68248C88.4975 3.79952 92.6982 1.28304 95.5737 0.87992ZM94.636 6.09611C95.9238 5.32651 99.8369 1.22197 96.1863 1.58844C94.086 1.82054 91.5355 3.71401 90.4854 4.9356C91.9481 4.76458 93.4359 5.38759 94.636 6.09611ZM91.0105 9.28446C92.1856 10.5671 93.7859 11.8132 95.5112 12.2651C96.5114 12.5217 97.6115 12.4117 97.2115 11.0191C96.7989 9.73645 95.7487 8.61259 94.7236 7.75747C94.436 7.95293 94.111 8.1606 93.7859 8.29497C92.9108 8.77139 91.9731 9.11344 91.0105 9.28446Z" fill="#EBA12A"/>
<path d="M90.4481 5.83947C91.4482 5.75396 92.5234 6.26703 93.3485 6.7801C92.5609 7.14657 91.6858 7.37867 90.7731 7.42754C89.4354 7.43975 89.1603 5.96163 90.4481 5.83947Z" fill="white"/>
</svg>
