<svg width="35" height="28" viewBox="0 0 35 28" fill="none" xmlns="http://www.w3.org/2000/svg">
<path d="M6.36698 27.4577V25.6552C6.37756 25.5036 6.35568 25.3515 6.30283 25.209C6.24997 25.0666 6.16734 24.937 6.06046 24.829C5.95357 24.7209 5.82487 24.6369 5.68296 24.5826C5.54105 24.5282 5.38918 24.5047 5.23748 24.5137C5.03894 24.5008 4.84056 24.5413 4.66302 24.6311C4.48549 24.721 4.3353 24.8568 4.22811 25.0244C4.13042 24.8618 3.99069 24.7285 3.82362 24.6386C3.65656 24.5488 3.46835 24.5056 3.27882 24.5137C3.11361 24.5054 2.94909 24.5404 2.80156 24.6152C2.65403 24.69 2.5286 24.8021 2.43768 24.9403V24.5858H1.81281V27.4577H2.44366V25.8655C2.43002 25.7673 2.43831 25.6672 2.46793 25.5726C2.49755 25.4779 2.54777 25.391 2.61497 25.318C2.68218 25.2451 2.76471 25.1879 2.85663 25.1506C2.94855 25.1134 3.04759 25.0969 3.14663 25.1025C3.56118 25.1025 3.7715 25.3729 3.7715 25.8595V27.4577H4.40235V25.8655C4.38974 25.7674 4.39874 25.6678 4.42874 25.5736C4.45874 25.4794 4.509 25.3929 4.57599 25.3202C4.64299 25.2475 4.72509 25.1903 4.81653 25.1527C4.90797 25.1151 5.00654 25.0979 5.10531 25.1025C5.53186 25.1025 5.73613 25.3729 5.73613 25.8595V27.4577H6.36698ZM15.7036 24.5858H14.6823V23.7146H14.0514V24.5858H13.4686V25.1566H14.0514V26.4664C14.0514 27.1332 14.3098 27.5298 15.0488 27.5298C15.3248 27.5306 15.5956 27.4536 15.8298 27.3075L15.6496 26.7728C15.482 26.8727 15.2919 26.9285 15.0968 26.935C14.7844 26.935 14.6823 26.7427 14.6823 26.4544V25.1566H15.7036V24.5858ZM21.0329 24.5137C20.8805 24.5092 20.7298 24.5459 20.5966 24.6199C20.4633 24.6939 20.3525 24.8026 20.2759 24.9343V24.5858H19.657V27.4577H20.2819V25.8475C20.2819 25.3729 20.4861 25.1085 20.8947 25.1085C21.0284 25.1067 21.1611 25.1312 21.2852 25.1806L21.4775 24.5918C21.3348 24.5407 21.1844 24.5143 21.0329 24.5137ZM12.976 24.8141C12.6223 24.6038 12.2156 24.4995 11.8044 24.5137C11.0774 24.5137 10.6088 24.8622 10.6088 25.4329C10.6088 25.9016 10.9572 26.19 11.6001 26.2801L11.8945 26.3221C12.2369 26.3701 12.3992 26.4603 12.3992 26.6225C12.3992 26.8448 12.1708 26.971 11.7443 26.971C11.4012 26.9809 11.0647 26.8751 10.789 26.6706L10.4946 27.1573C10.8586 27.4115 11.2945 27.542 11.7383 27.5298C12.5674 27.5298 13.048 27.1392 13.048 26.5925C13.048 26.0878 12.6695 25.8235 12.0447 25.7333L11.7503 25.6913C11.4799 25.6552 11.2637 25.6012 11.2637 25.409C11.2637 25.1986 11.4679 25.0725 11.8104 25.0725C12.1249 25.0772 12.433 25.162 12.7056 25.3188L12.976 24.8141ZM29.7146 24.5137C29.5623 24.5092 29.4116 24.5459 29.2783 24.6199C29.1451 24.6939 29.0343 24.8026 28.9576 24.9343V24.5858H28.3388V27.4577H28.9636V25.8475C28.9636 25.3729 29.1679 25.1085 29.5764 25.1085C29.7101 25.1067 29.8428 25.1312 29.967 25.1806L30.1593 24.5918C30.0166 24.5407 29.8662 24.5143 29.7146 24.5137ZM21.6637 26.0217C21.6554 26.224 21.6895 26.4258 21.7639 26.6142C21.8383 26.8025 21.9513 26.9732 22.0956 27.1152C22.2399 27.2573 22.4124 27.3676 22.6018 27.439C22.7913 27.5104 22.9937 27.5413 23.1958 27.5298C23.571 27.5487 23.9396 27.4265 24.2292 27.1873L23.9288 26.6826C23.7128 26.8473 23.4494 26.9379 23.1778 26.941C22.9436 26.9268 22.7237 26.8237 22.563 26.6529C22.4022 26.4821 22.3126 26.2563 22.3126 26.0217C22.3126 25.7871 22.4022 25.5614 22.563 25.3906C22.7237 25.2197 22.9436 25.1167 23.1778 25.1025C23.4494 25.1056 23.7128 25.1962 23.9288 25.3609L24.2292 24.8562C23.9396 24.617 23.571 24.4949 23.1958 24.5137C22.9937 24.5022 22.7914 24.5332 22.6019 24.6045C22.4124 24.6759 22.24 24.7862 22.0956 24.9282C21.9513 25.0703 21.8384 25.2409 21.764 25.4292C21.6896 25.6176 21.6554 25.8194 21.6637 26.0217ZM27.5157 24.5858H26.8908V24.9343C26.7842 24.7968 26.6461 24.6869 26.4883 24.6138C26.3305 24.5406 26.1574 24.5063 25.9836 24.5137C25.5964 24.5327 25.2314 24.6999 24.9641 24.9806C24.6967 25.2613 24.5477 25.6341 24.5477 26.0218C24.5477 26.4094 24.6967 26.7822 24.9641 27.0629C25.2314 27.3437 25.5964 27.5108 25.9836 27.5298C26.1574 27.5372 26.3305 27.5029 26.4883 27.4297C26.6461 27.3566 26.7842 27.2466 26.8908 27.1092V27.4577H27.5157V24.5858ZM25.1905 26.0217C25.2002 25.8522 25.2593 25.6893 25.3605 25.553C25.4616 25.4167 25.6005 25.313 25.7599 25.2547C25.9193 25.1964 26.0923 25.186 26.2576 25.2248C26.4228 25.2636 26.5731 25.35 26.6899 25.4732C26.8066 25.5964 26.8848 25.7511 26.9147 25.9182C26.9446 26.0853 26.9249 26.2574 26.8582 26.4135C26.7914 26.5696 26.6804 26.7027 26.5389 26.7964C26.3973 26.8901 26.2315 26.9404 26.0617 26.941C25.9427 26.9426 25.8247 26.9195 25.7151 26.8733C25.6055 26.827 25.5066 26.7585 25.4248 26.6722C25.3429 26.5858 25.2798 26.4834 25.2395 26.3715C25.1992 26.2595 25.1825 26.1404 25.1905 26.0217ZM17.6503 24.5137C17.2607 24.5342 16.8941 24.7048 16.6275 24.9898C16.3609 25.2747 16.215 25.6518 16.2205 26.042C16.2259 26.4322 16.3823 26.8051 16.6567 27.0825C16.9311 27.3598 17.3023 27.5202 17.6924 27.5298C18.121 27.5449 18.5402 27.4015 18.87 27.1272L18.5635 26.6646C18.3263 26.8548 18.0324 26.9605 17.7284 26.965C17.5219 26.9824 17.3168 26.9187 17.1565 26.7875C16.9961 26.6563 16.8931 26.4678 16.8692 26.262H19.0022C19.0082 26.184 19.0141 26.1058 19.0141 26.0217C19.0082 25.1265 18.4554 24.5137 17.6503 24.5137ZM17.6383 25.0725C17.827 25.0688 18.0095 25.1401 18.1458 25.2707C18.282 25.4014 18.361 25.5807 18.3653 25.7694H16.8752C16.8862 25.5766 16.9722 25.3957 17.1148 25.2655C17.2574 25.1352 17.4453 25.066 17.6383 25.0725ZM33.3135 23.4323H32.6887V24.9343C32.582 24.7968 32.444 24.6869 32.2862 24.6138C32.1283 24.5406 31.9553 24.5063 31.7815 24.5137C31.3943 24.5327 31.0292 24.6998 30.7619 24.9806C30.4946 25.2613 30.3455 25.6341 30.3455 26.0218C30.3455 26.4094 30.4946 26.7822 30.7619 27.063C31.0292 27.3437 31.3943 27.5108 31.7815 27.5298C31.9553 27.5372 32.1283 27.5029 32.2862 27.4297C32.444 27.3566 32.582 27.2466 32.6887 27.1092V27.4577H33.3135V23.4323ZM34.3551 27.0415C34.3939 27.0412 34.4324 27.0489 34.4682 27.0639C34.5026 27.0783 34.5339 27.099 34.5605 27.1251C34.5869 27.1511 34.608 27.182 34.6227 27.2161C34.6378 27.251 34.6455 27.2887 34.6455 27.3268C34.6455 27.3649 34.6378 27.4025 34.6227 27.4375C34.608 27.4714 34.5868 27.5022 34.5605 27.5281C34.5338 27.5542 34.5025 27.5751 34.4682 27.5896C34.4324 27.6049 34.394 27.6127 34.3551 27.6124C34.298 27.613 34.2419 27.5967 34.1939 27.5656C34.146 27.5345 34.1082 27.49 34.0854 27.4375C34.0705 27.4025 34.0627 27.3649 34.0627 27.3268C34.0627 27.2887 34.0705 27.2511 34.0854 27.2161C34.1001 27.1821 34.1211 27.1512 34.1474 27.1251C34.174 27.0988 34.2055 27.078 34.2401 27.0639C34.2765 27.0488 34.3157 27.0412 34.3551 27.0415ZM34.3551 27.5494C34.3847 27.5497 34.4141 27.5437 34.4412 27.532C34.4673 27.5206 34.491 27.5045 34.5111 27.4844C34.5526 27.4425 34.5759 27.3859 34.5759 27.3269C34.5759 27.268 34.5526 27.2114 34.5111 27.1695C34.4911 27.1494 34.4673 27.1334 34.4412 27.1223C34.414 27.1108 34.3847 27.1049 34.3551 27.1052C34.325 27.1049 34.2952 27.1108 34.2673 27.1223C34.2408 27.1332 34.2167 27.1493 34.1963 27.1695C34.1548 27.2114 34.1315 27.268 34.1315 27.3269C34.1315 27.3859 34.1548 27.4425 34.1963 27.4844C34.2167 27.5046 34.2408 27.5208 34.2673 27.532C34.2951 27.5437 34.325 27.5496 34.3551 27.5494ZM34.3719 27.1933C34.4 27.1915 34.4279 27.1995 34.4507 27.2161C34.4597 27.2235 34.467 27.233 34.4718 27.2438C34.4765 27.2545 34.4788 27.2662 34.4783 27.278C34.4786 27.288 34.4768 27.2981 34.473 27.3074C34.4692 27.3167 34.4635 27.3252 34.4563 27.3322C34.4389 27.3476 34.4168 27.3568 34.3936 27.3584L34.4804 27.4585H34.4125L34.3321 27.3591H34.3062V27.4585H34.2495V27.1933H34.3719ZM34.3062 27.243V27.3137H34.3713C34.3838 27.3143 34.3962 27.3112 34.407 27.3049C34.4113 27.302 34.4149 27.2979 34.4172 27.2932C34.4195 27.2885 34.4206 27.2832 34.4202 27.278C34.4205 27.2728 34.4194 27.2677 34.4171 27.2631C34.4148 27.2585 34.4113 27.2545 34.407 27.2517C34.3961 27.2454 34.3837 27.2424 34.3713 27.243H34.3062ZM30.9884 26.0217C30.9981 25.8522 31.0572 25.6893 31.1584 25.553C31.2596 25.4168 31.3984 25.3131 31.5578 25.2548C31.7172 25.1965 31.8902 25.1861 32.0555 25.2249C32.2207 25.2637 32.371 25.3501 32.4877 25.4733C32.6045 25.5965 32.6826 25.7512 32.7125 25.9182C32.7424 26.0853 32.7227 26.2575 32.656 26.4136C32.5892 26.5696 32.4782 26.7027 32.3367 26.7964C32.1951 26.8901 32.0293 26.9404 31.8595 26.941C31.7406 26.9426 31.6226 26.9195 31.5129 26.8732C31.4033 26.827 31.3045 26.7585 31.2226 26.6721C31.1408 26.5858 31.0777 26.4834 31.0374 26.3714C30.9971 26.2595 30.9804 26.1404 30.9884 26.0217ZM9.88778 24.5858H9.26291V24.9343C9.15625 24.7968 9.01824 24.6869 8.8604 24.6138C8.70256 24.5406 8.52949 24.5063 8.35567 24.5137C7.9685 24.5327 7.60346 24.6999 7.33615 24.9806C7.06884 25.2613 6.91975 25.6341 6.91975 26.0218C6.91975 26.4094 7.06884 26.7822 7.33615 27.0629C7.60346 27.3437 7.9685 27.5108 8.35567 27.5298C8.52949 27.5372 8.70256 27.5029 8.8604 27.4297C9.01824 27.3566 9.15625 27.2466 9.26291 27.1092V27.4577H9.88778V24.5858ZM7.56264 26.0217C7.57235 25.8522 7.63144 25.6893 7.73263 25.553C7.83381 25.4168 7.97267 25.3131 8.13208 25.2548C8.29149 25.1965 8.46448 25.1861 8.62972 25.2249C8.79495 25.2637 8.94521 25.3501 9.06197 25.4733C9.17872 25.5965 9.25687 25.7512 9.28676 25.9183C9.31666 26.0853 9.297 26.2575 9.23021 26.4136C9.16342 26.5696 9.05242 26.7027 8.9109 26.7964C8.76938 26.8901 8.60353 26.9404 8.43379 26.941C8.31482 26.9426 8.1968 26.9195 8.08718 26.8732C7.97756 26.827 7.87872 26.7585 7.79687 26.6721C7.71503 26.5858 7.65196 26.4834 7.61165 26.3714C7.57134 26.2595 7.55465 26.1404 7.56264 26.0217Z" fill="#231F20"/>
<path d="M22.2324 2.69911H12.7683V19.7064H22.2324V2.69911Z" fill="#FF5F00"/>
<path d="M13.3691 11.2034C13.3676 9.56542 13.7388 7.94863 14.4545 6.47536C15.1702 5.00209 16.2117 3.71095 17.5002 2.6997C15.9046 1.44552 13.9883 0.665565 11.9704 0.44898C9.9525 0.232395 7.91435 0.587922 6.08894 1.47492C4.26352 2.36192 2.72448 3.74461 1.64774 5.46494C0.571004 7.18527 0 9.17384 0 11.2034C0 13.2329 0.571004 15.2214 1.64774 16.9418C2.72448 18.6621 4.26352 20.0448 6.08894 20.9318C7.91435 21.8188 9.9525 22.1743 11.9704 21.9577C13.9883 21.7411 15.9046 20.9612 17.5002 19.707C16.2117 18.6958 15.1702 17.4046 14.4545 15.9314C13.7388 14.4581 13.3676 12.8413 13.3691 11.2034Z" fill="#EB001B"/>
<path d="M35 11.2033C35.0001 13.2328 34.4291 15.2214 33.3525 16.9417C32.2758 18.6621 30.7368 20.0448 28.9114 20.9318C27.086 21.8188 25.0479 22.1743 23.03 21.9577C21.0121 21.7411 19.0958 20.9612 17.5002 19.707C18.7876 18.6947 19.8284 17.4034 20.544 15.9303C21.2596 14.4573 21.6314 12.841 21.6314 11.2033C21.6314 9.56568 21.2596 7.9494 20.544 6.47636C19.8284 5.00331 18.7876 3.71197 17.5002 2.6997C19.0958 1.44552 21.0121 0.665561 23.03 0.448978C25.0479 0.232396 27.086 0.587929 28.9114 1.47494C30.7368 2.36195 32.2758 3.74464 33.3525 5.46498C34.4291 7.18531 35.0001 9.17387 35 11.2033Z" fill="#F79E1B"/>
<path d="M33.9681 17.9053V17.5571H34.1085V17.4862H33.751V17.5571H33.8914V17.9053H33.9681ZM34.6623 17.9053V17.4855H34.5527L34.4266 17.7743L34.3005 17.4855H34.1909V17.9053H34.2683V17.5886L34.3865 17.8617H34.4668L34.585 17.5879V17.9053H34.6623Z" fill="#F79E1B"/>
</svg>
