<svg width="185" height="84" viewBox="0 0 185 84" fill="none" xmlns="http://www.w3.org/2000/svg">
<path d="M6.36698 55.4577V53.6552C6.37756 53.5036 6.35568 53.3515 6.30283 53.209C6.24997 53.0666 6.16734 52.937 6.06046 52.829C5.95357 52.7209 5.82487 52.6369 5.68296 52.5826C5.54105 52.5282 5.38918 52.5047 5.23748 52.5137C5.03894 52.5008 4.84056 52.5413 4.66302 52.6311C4.48549 52.721 4.3353 52.8568 4.22811 53.0244C4.13042 52.8618 3.99069 52.7285 3.82362 52.6386C3.65656 52.5488 3.46835 52.5056 3.27882 52.5137C3.11361 52.5054 2.94909 52.5404 2.80156 52.6152C2.65403 52.69 2.5286 52.8021 2.43768 52.9403V52.5858H1.81281V55.4577H2.44366V53.8655C2.43002 53.7673 2.43831 53.6672 2.46793 53.5726C2.49755 53.4779 2.54777 53.391 2.61497 53.318C2.68218 53.2451 2.76471 53.1879 2.85663 53.1506C2.94855 53.1134 3.04759 53.0969 3.14663 53.1025C3.56118 53.1025 3.7715 53.3729 3.7715 53.8595V55.4577H4.40235V53.8655C4.38974 53.7674 4.39874 53.6678 4.42874 53.5736C4.45874 53.4794 4.509 53.3929 4.57599 53.3202C4.64299 53.2475 4.72509 53.1903 4.81653 53.1527C4.90797 53.1151 5.00654 53.0979 5.10531 53.1025C5.53186 53.1025 5.73613 53.3729 5.73613 53.8595V55.4577H6.36698ZM15.7036 52.5858H14.6823V51.7146H14.0514V52.5858H13.4686V53.1566H14.0514V54.4664C14.0514 55.1332 14.3098 55.5298 15.0488 55.5298C15.3248 55.5306 15.5956 55.4536 15.8298 55.3075L15.6496 54.7728C15.482 54.8727 15.2919 54.9285 15.0968 54.935C14.7844 54.935 14.6823 54.7427 14.6823 54.4544V53.1566H15.7036V52.5858ZM21.0329 52.5137C20.8805 52.5092 20.7298 52.5459 20.5966 52.6199C20.4633 52.6939 20.3525 52.8026 20.2759 52.9343V52.5858H19.657V55.4577H20.2819V53.8475C20.2819 53.3729 20.4861 53.1085 20.8947 53.1085C21.0284 53.1067 21.1611 53.1312 21.2852 53.1806L21.4775 52.5918C21.3348 52.5407 21.1844 52.5143 21.0329 52.5137ZM12.976 52.8141C12.6223 52.6038 12.2156 52.4995 11.8044 52.5137C11.0774 52.5137 10.6088 52.8622 10.6088 53.4329C10.6088 53.9016 10.9572 54.19 11.6001 54.2801L11.8945 54.3221C12.2369 54.3701 12.3992 54.4603 12.3992 54.6225C12.3992 54.8448 12.1708 54.971 11.7443 54.971C11.4012 54.9809 11.0647 54.8751 10.789 54.6706L10.4946 55.1573C10.8586 55.4115 11.2945 55.542 11.7383 55.5298C12.5674 55.5298 13.048 55.1392 13.048 54.5925C13.048 54.0878 12.6695 53.8235 12.0447 53.7333L11.7503 53.6913C11.4799 53.6552 11.2637 53.6012 11.2637 53.409C11.2637 53.1986 11.4679 53.0725 11.8104 53.0725C12.1249 53.0772 12.433 53.162 12.7056 53.3188L12.976 52.8141ZM29.7146 52.5137C29.5623 52.5092 29.4116 52.5459 29.2783 52.6199C29.1451 52.6939 29.0343 52.8026 28.9576 52.9343V52.5858H28.3388V55.4577H28.9636V53.8475C28.9636 53.3729 29.1679 53.1085 29.5764 53.1085C29.7101 53.1067 29.8428 53.1312 29.967 53.1806L30.1593 52.5918C30.0166 52.5407 29.8662 52.5143 29.7146 52.5137ZM21.6637 54.0217C21.6554 54.224 21.6895 54.4258 21.7639 54.6142C21.8383 54.8025 21.9513 54.9732 22.0956 55.1152C22.2399 55.2573 22.4124 55.3676 22.6018 55.439C22.7913 55.5104 22.9937 55.5413 23.1958 55.5298C23.571 55.5487 23.9396 55.4265 24.2292 55.1873L23.9288 54.6826C23.7128 54.8473 23.4494 54.9379 23.1778 54.941C22.9436 54.9268 22.7237 54.8237 22.563 54.6529C22.4022 54.4821 22.3126 54.2563 22.3126 54.0217C22.3126 53.7871 22.4022 53.5614 22.563 53.3906C22.7237 53.2197 22.9436 53.1167 23.1778 53.1025C23.4494 53.1056 23.7128 53.1962 23.9288 53.3609L24.2292 52.8562C23.9396 52.617 23.571 52.4949 23.1958 52.5137C22.9937 52.5022 22.7914 52.5332 22.6019 52.6045C22.4124 52.6759 22.24 52.7862 22.0956 52.9282C21.9513 53.0703 21.8384 53.2409 21.764 53.4292C21.6896 53.6176 21.6554 53.8194 21.6637 54.0217ZM27.5157 52.5858H26.8908V52.9343C26.7842 52.7968 26.6461 52.6869 26.4883 52.6138C26.3305 52.5406 26.1574 52.5063 25.9836 52.5137C25.5964 52.5327 25.2314 52.6999 24.9641 52.9806C24.6967 53.2613 24.5477 53.6341 24.5477 54.0218C24.5477 54.4094 24.6967 54.7822 24.9641 55.0629C25.2314 55.3437 25.5964 55.5108 25.9836 55.5298C26.1574 55.5372 26.3305 55.5029 26.4883 55.4297C26.6461 55.3566 26.7842 55.2466 26.8908 55.1092V55.4577H27.5157V52.5858ZM25.1905 54.0217C25.2002 53.8522 25.2593 53.6893 25.3605 53.553C25.4616 53.4167 25.6005 53.313 25.7599 53.2547C25.9193 53.1964 26.0923 53.186 26.2576 53.2248C26.4228 53.2636 26.5731 53.35 26.6899 53.4732C26.8066 53.5964 26.8848 53.7511 26.9147 53.9182C26.9446 54.0853 26.9249 54.2574 26.8582 54.4135C26.7914 54.5696 26.6804 54.7027 26.5389 54.7964C26.3973 54.8901 26.2315 54.9404 26.0617 54.941C25.9427 54.9426 25.8247 54.9195 25.7151 54.8733C25.6055 54.827 25.5066 54.7585 25.4248 54.6722C25.3429 54.5858 25.2798 54.4834 25.2395 54.3715C25.1992 54.2595 25.1825 54.1404 25.1905 54.0217ZM17.6503 52.5137C17.2607 52.5342 16.8941 52.7048 16.6275 52.9898C16.3609 53.2747 16.215 53.6518 16.2205 54.042C16.2259 54.4322 16.3823 54.8051 16.6567 55.0825C16.9311 55.3598 17.3023 55.5202 17.6924 55.5298C18.121 55.5449 18.5402 55.4015 18.87 55.1272L18.5635 54.6646C18.3263 54.8548 18.0324 54.9605 17.7284 54.965C17.5219 54.9824 17.3168 54.9187 17.1565 54.7875C16.9961 54.6563 16.8931 54.4678 16.8692 54.262H19.0022C19.0082 54.184 19.0141 54.1058 19.0141 54.0217C19.0082 53.1265 18.4554 52.5137 17.6503 52.5137ZM17.6383 53.0725C17.827 53.0688 18.0095 53.1401 18.1458 53.2707C18.282 53.4014 18.361 53.5807 18.3653 53.7694H16.8752C16.8862 53.5766 16.9722 53.3957 17.1148 53.2655C17.2574 53.1352 17.4453 53.066 17.6383 53.0725ZM33.3135 51.4323H32.6887V52.9343C32.582 52.7968 32.444 52.6869 32.2862 52.6138C32.1283 52.5406 31.9553 52.5063 31.7815 52.5137C31.3943 52.5327 31.0292 52.6998 30.7619 52.9806C30.4946 53.2613 30.3455 53.6341 30.3455 54.0218C30.3455 54.4094 30.4946 54.7822 30.7619 55.063C31.0292 55.3437 31.3943 55.5108 31.7815 55.5298C31.9553 55.5372 32.1283 55.5029 32.2862 55.4297C32.444 55.3566 32.582 55.2466 32.6887 55.1092V55.4577H33.3135V51.4323ZM34.3551 55.0415C34.3939 55.0412 34.4324 55.0489 34.4682 55.0639C34.5026 55.0783 34.5339 55.099 34.5605 55.1251C34.5869 55.1511 34.608 55.182 34.6227 55.2161C34.6378 55.251 34.6455 55.2887 34.6455 55.3268C34.6455 55.3649 34.6378 55.4025 34.6227 55.4375C34.608 55.4714 34.5868 55.5022 34.5605 55.5281C34.5338 55.5542 34.5025 55.5751 34.4682 55.5896C34.4324 55.6049 34.394 55.6127 34.3551 55.6124C34.298 55.613 34.2419 55.5967 34.1939 55.5656C34.146 55.5345 34.1082 55.49 34.0854 55.4375C34.0705 55.4025 34.0627 55.3649 34.0627 55.3268C34.0627 55.2887 34.0705 55.2511 34.0854 55.2161C34.1001 55.1821 34.1211 55.1512 34.1474 55.1251C34.174 55.0988 34.2055 55.078 34.2401 55.0639C34.2765 55.0488 34.3157 55.0412 34.3551 55.0415ZM34.3551 55.5494C34.3847 55.5497 34.4141 55.5437 34.4412 55.532C34.4673 55.5206 34.491 55.5045 34.5111 55.4844C34.5526 55.4425 34.5759 55.3859 34.5759 55.3269C34.5759 55.268 34.5526 55.2114 34.5111 55.1695C34.4911 55.1494 34.4673 55.1334 34.4412 55.1223C34.414 55.1108 34.3847 55.1049 34.3551 55.1052C34.325 55.1049 34.2952 55.1108 34.2673 55.1223C34.2408 55.1332 34.2167 55.1493 34.1963 55.1695C34.1548 55.2114 34.1315 55.268 34.1315 55.3269C34.1315 55.3859 34.1548 55.4425 34.1963 55.4844C34.2167 55.5046 34.2408 55.5208 34.2673 55.532C34.2951 55.5437 34.325 55.5496 34.3551 55.5494ZM34.3719 55.1933C34.4 55.1915 34.4279 55.1995 34.4507 55.2161C34.4597 55.2235 34.467 55.233 34.4718 55.2438C34.4765 55.2545 34.4788 55.2662 34.4783 55.278C34.4786 55.288 34.4768 55.2981 34.473 55.3074C34.4692 55.3167 34.4635 55.3252 34.4563 55.3322C34.4389 55.3476 34.4168 55.3568 34.3936 55.3584L34.4804 55.4585H34.4125L34.3321 55.3591H34.3062V55.4585H34.2495V55.1933H34.3719ZM34.3062 55.243V55.3137H34.3713C34.3838 55.3143 34.3962 55.3112 34.407 55.3049C34.4113 55.302 34.4149 55.2979 34.4172 55.2932C34.4195 55.2885 34.4206 55.2832 34.4202 55.278C34.4205 55.2728 34.4194 55.2677 34.4171 55.2631C34.4148 55.2585 34.4113 55.2545 34.407 55.2517C34.3961 55.2454 34.3837 55.2424 34.3713 55.243H34.3062ZM30.9884 54.0217C30.9981 53.8522 31.0572 53.6893 31.1584 53.553C31.2596 53.4168 31.3984 53.3131 31.5578 53.2548C31.7172 53.1965 31.8902 53.1861 32.0555 53.2249C32.2207 53.2637 32.371 53.3501 32.4877 53.4733C32.6045 53.5965 32.6826 53.7512 32.7125 53.9182C32.7424 54.0853 32.7227 54.2575 32.656 54.4136C32.5892 54.5696 32.4782 54.7027 32.3367 54.7964C32.1951 54.8901 32.0293 54.9404 31.8595 54.941C31.7406 54.9426 31.6226 54.9195 31.5129 54.8732C31.4033 54.827 31.3045 54.7585 31.2226 54.6721C31.1408 54.5858 31.0777 54.4834 31.0374 54.3714C30.9971 54.2595 30.9804 54.1404 30.9884 54.0217ZM9.88778 52.5858H9.26291V52.9343C9.15625 52.7968 9.01824 52.6869 8.8604 52.6138C8.70256 52.5406 8.52949 52.5063 8.35567 52.5137C7.9685 52.5327 7.60346 52.6999 7.33615 52.9806C7.06884 53.2613 6.91975 53.6341 6.91975 54.0218C6.91975 54.4094 7.06884 54.7822 7.33615 55.0629C7.60346 55.3437 7.9685 55.5108 8.35567 55.5298C8.52949 55.5372 8.70256 55.5029 8.8604 55.4297C9.01824 55.3566 9.15625 55.2466 9.26291 55.1092V55.4577H9.88778V52.5858ZM7.56264 54.0217C7.57235 53.8522 7.63144 53.6893 7.73263 53.553C7.83381 53.4168 7.97267 53.3131 8.13208 53.2548C8.29149 53.1965 8.46448 53.1861 8.62972 53.2249C8.79495 53.2637 8.94521 53.3501 9.06197 53.4733C9.17872 53.5965 9.25687 53.7512 9.28676 53.9183C9.31666 54.0853 9.297 54.2575 9.23021 54.4136C9.16342 54.5696 9.05242 54.7027 8.9109 54.7964C8.76938 54.8901 8.60353 54.9404 8.43379 54.941C8.31482 54.9426 8.1968 54.9195 8.08718 54.8732C7.97756 54.827 7.87872 54.7585 7.79687 54.6721C7.71503 54.5858 7.65196 54.4834 7.61165 54.3714C7.57134 54.2595 7.55465 54.1404 7.56264 54.0217Z" fill="#231F20"/>
<path d="M22.2324 30.6991H12.7683V47.7064H22.2324V30.6991Z" fill="#FF5F00"/>
<path d="M13.3691 39.2034C13.3676 37.5654 13.7388 35.9486 14.4545 34.4754C15.1702 33.0021 16.2117 31.7109 17.5002 30.6997C15.9046 29.4455 13.9883 28.6656 11.9704 28.449C9.9525 28.2324 7.91435 28.5879 6.08894 29.4749C4.26352 30.3619 2.72448 31.7446 1.64774 33.4649C0.571004 35.1853 0 37.1738 0 39.2034C0 41.2329 0.571004 43.2214 1.64774 44.9418C2.72448 46.6621 4.26352 48.0448 6.08894 48.9318C7.91435 49.8188 9.9525 50.1743 11.9704 49.9577C13.9883 49.7411 15.9046 48.9612 17.5002 47.707C16.2117 46.6958 15.1702 45.4046 14.4545 43.9314C13.7388 42.4581 13.3676 40.8413 13.3691 39.2034Z" fill="#EB001B"/>
<path d="M35 39.2033C35.0001 41.2328 34.4291 43.2214 33.3525 44.9417C32.2758 46.6621 30.7368 48.0448 28.9114 48.9318C27.086 49.8188 25.0479 50.1743 23.03 49.9577C21.0121 49.7411 19.0958 48.9612 17.5002 47.707C18.7876 46.6947 19.8284 45.4034 20.544 43.9303C21.2596 42.4573 21.6314 40.841 21.6314 39.2033C21.6314 37.5657 21.2596 35.9494 20.544 34.4764C19.8284 33.0033 18.7876 31.712 17.5002 30.6997C19.0958 29.4455 21.0121 28.6656 23.03 28.449C25.0479 28.2324 27.086 28.5879 28.9114 29.4749C30.7368 30.3619 32.2758 31.7446 33.3525 33.465C34.4291 35.1853 35.0001 37.1739 35 39.2033Z" fill="#F79E1B"/>
<path d="M33.9681 45.9053V45.5571H34.1085V45.4862H33.751V45.5571H33.8914V45.9053H33.9681ZM34.6623 45.9053V45.4855H34.5527L34.4266 45.7743L34.3005 45.4855H34.1909V45.9053H34.2683V45.5886L34.3865 45.8617H34.4668L34.585 45.5879V45.9053H34.6623Z" fill="#F79E1B"/>
<path d="M67.3297 36.5478L64.9914 47.4798H62.1631L64.5016 36.5478H67.3297ZM79.2283 43.6067L80.7168 39.5015L81.5734 43.6067H79.2283ZM82.3848 47.4798H85L82.7153 36.5478H80.303C79.7594 36.5478 79.301 36.863 79.0982 37.3491L74.8546 47.4798H77.8248L78.4144 45.8472H82.0423L82.3848 47.4798ZM75.0019 43.9109C75.0142 41.0257 71.0135 40.8659 71.0403 39.5768C71.0489 39.1851 71.4226 38.7678 72.2394 38.6611C72.6444 38.609 73.7619 38.5667 75.0287 39.1504L75.5241 36.8313C74.8438 36.5852 73.9682 36.3481 72.8787 36.3481C70.0828 36.3481 68.116 37.8332 68.1003 39.9616C68.0824 41.5354 69.5053 42.413 70.5751 42.9372C71.6781 43.473 72.0476 43.8164 72.0422 44.2952C72.0346 45.0286 71.1627 45.3534 70.3508 45.3657C68.9282 45.3879 68.1035 44.9812 67.4463 44.6748L66.9329 47.0714C67.5948 47.3743 68.8143 47.6379 70.0772 47.6514C73.0496 47.6514 74.993 46.1838 75.0019 43.9109ZM63.2885 36.5478L58.706 47.4798H55.7169L53.4617 38.7553C53.325 38.2188 53.2058 38.0216 52.79 37.7949C52.1099 37.4256 50.9872 37.0801 50 36.8652L50.0669 36.5478H54.8792C55.4922 36.5478 56.0437 36.9557 56.1841 37.6619L57.3754 43.9883L60.3173 36.5478H63.2885Z" fill="#1434CB"/>
<path d="M102.482 37.116L103.155 38.7518H101.812L102.482 37.116Z" fill="#006FCF"/>
<path d="M117.988 38.1005C117.853 38.1823 117.693 38.185 117.501 38.185H116.306V37.2736H117.518C117.689 37.2736 117.868 37.2813 117.984 37.3476C118.112 37.4074 118.191 37.5346 118.191 37.7103C118.191 37.8897 118.116 38.034 117.988 38.1005Z" fill="#006FCF"/>
<path d="M125.833 37.116L126.514 38.7518H125.156L125.833 37.116Z" fill="#006FCF"/>
<path fill-rule="evenodd" clip-rule="evenodd" d="M100 41.3283H101.681L102.06 40.4169H102.908L103.286 41.3283H106.594V40.6315L106.889 41.3313H108.606L108.901 40.6211V41.3283H117.12L117.116 39.8323H117.275C117.386 39.8361 117.419 39.8464 117.419 40.0297V41.3283H121.67V40.98C122.012 41.1632 122.546 41.3283 123.247 41.3283H125.036L125.418 40.4169H126.267L126.641 41.3283H130.087V40.4626L130.609 41.3283H133.371V35.6055H130.638V36.2813L130.255 35.6055H127.451V36.2813L127.099 35.6055H123.311C122.677 35.6055 122.12 35.6937 121.67 35.9396V35.6055H119.055V35.9396C118.769 35.6862 118.379 35.6055 117.944 35.6055H108.394L107.753 37.0836L107.095 35.6055H104.087V36.2813L103.757 35.6055H101.191L100 38.3264V41.3283ZM114.641 40.5224H111.355V36.4191H114.641V37.2735H112.339V38.0132H114.586V38.8543H112.339V39.6737H114.641V40.5224ZM109.613 40.5224H110.621V36.4191H108.984L107.801 39.2027L106.513 36.4191H104.908V40.304L103.235 36.4191H101.773L100.012 40.5224H101.08L101.462 39.6071H103.51L103.888 40.5224H105.889V37.3059L107.319 40.5224H108.183L109.609 37.3087L109.613 40.5224ZM119.275 37.5242C119.275 38.1784 118.837 38.5164 118.581 38.6179C118.797 38.6996 118.98 38.8439 119.068 38.9634C119.207 39.1675 119.231 39.3498 119.231 39.7163V40.5224H118.239L118.235 40.0049C118.235 39.9799 118.235 39.9537 118.235 39.9267C118.238 39.6876 118.24 39.3829 118.08 39.2055C117.936 39.0612 117.717 39.0299 117.363 39.0299H116.307V40.5224H115.323V36.4191H117.586C118.088 36.4191 118.459 36.4323 118.777 36.6156C119.088 36.7989 119.275 37.0665 119.275 37.5242ZM120.849 40.5224H119.845V36.4191H120.849V40.5224ZM132.494 40.5224H131.1L129.235 37.4426V40.5224H127.232L126.849 39.6071H124.805L124.434 40.5224H123.283C122.805 40.5224 122.199 40.4169 121.856 40.0685C121.511 39.7201 121.331 39.2482 121.331 38.502C121.331 37.8935 121.438 37.3372 121.861 36.8976C122.179 36.5701 122.677 36.4191 123.355 36.4191H124.307V37.2983H123.375C123.016 37.2983 122.813 37.3515 122.618 37.5414C122.45 37.7142 122.335 38.0408 122.335 38.4708C122.335 38.9105 122.423 39.2274 122.606 39.4345C122.757 39.5968 123.032 39.6461 123.291 39.6461H123.733L125.12 36.4192H126.594L128.259 40.3003V36.4192H129.757L131.486 39.2769V36.4192H132.494V40.5224Z" fill="#006FCF"/>
<path d="M121.713 45.2523C121.905 45.2523 122.068 45.2456 122.199 45.1677C122.327 45.0909 122.403 44.9494 122.403 44.7738C122.403 44.5982 122.327 44.4711 122.199 44.4046C122.08 44.3342 121.905 44.3305 121.73 44.3305H120.518V45.2523H121.713Z" fill="#006FCF"/>
<path d="M113.637 45.5408L115.148 47.2126V43.9221L113.637 45.5408Z" fill="#006FCF"/>
<path d="M108.828 46.7305H111.247L112.371 45.5264L111.295 44.3303H108.828V45.0765H110.988V45.9139H108.828V46.7305Z" fill="#006FCF"/>
<path d="M116.127 45.3757H117.399C117.777 45.3757 118.012 45.1886 118.012 44.8337C118.012 44.4748 117.765 44.3305 117.41 44.3305H116.127V45.3757Z" fill="#006FCF"/>
<path fill-rule="evenodd" clip-rule="evenodd" d="M135 47.0608C134.761 47.4092 134.295 47.5858 133.665 47.5858H131.765V46.7057H133.657C133.845 46.7057 133.976 46.6811 134.055 46.6041C134.124 46.5406 134.172 46.4484 134.172 46.3364C134.172 46.2169 134.124 46.1219 134.052 46.065C133.98 46.0024 133.876 45.9739 133.705 45.9739C133.645 45.9719 133.583 45.9702 133.521 45.9685C132.635 45.9446 131.629 45.9174 131.629 44.7036C131.629 44.1083 132.008 43.4817 133.04 43.4817H135V42.6651H133.179C132.63 42.6651 132.231 42.7963 131.948 43.0002V42.6651H129.255C128.825 42.6651 128.319 42.7715 128.08 43.0002V42.6651H123.271V43.0002C122.888 42.725 122.243 42.6651 121.945 42.6651H118.773V43.0002C118.47 42.7079 117.797 42.6651 117.386 42.6651H113.836L113.024 43.5416L112.263 42.6651H106.96V48.3919H112.163L113 47.5015L113.789 48.3919L116.996 48.3947V47.0476H117.311C117.737 47.0541 118.239 47.037 118.682 46.8462V48.3918H121.327V46.8992H121.455C121.617 46.8992 121.633 46.9059 121.633 47.0681V48.3916H129.67C130.18 48.3916 130.713 48.2614 131.008 48.0252V48.3916H133.557C134.088 48.3916 134.606 48.3175 135 48.1277V47.0608ZM131.076 45.4212C131.267 45.6188 131.37 45.8683 131.37 46.2907C131.37 47.1737 130.817 47.5858 129.825 47.5858H127.909V46.7057H129.817C130.004 46.7057 130.136 46.6811 130.219 46.6041C130.287 46.5406 130.335 46.4484 130.335 46.3364C130.335 46.2169 130.283 46.1219 130.215 46.065C130.14 46.0024 130.036 45.9739 129.865 45.9739C129.804 45.9719 129.743 45.9702 129.681 45.9685C128.799 45.9446 127.793 45.9173 127.793 44.7036C127.793 44.1083 128.168 43.4817 129.199 43.4817H131.171V44.3552H129.367C129.188 44.3552 129.071 44.3619 128.973 44.4293C128.865 44.4958 128.825 44.5944 128.825 44.7246C128.825 44.8795 128.916 44.9848 129.04 45.0303C129.144 45.0663 129.255 45.0769 129.423 45.0769L129.952 45.0911C130.486 45.1041 130.853 45.1962 131.076 45.4212ZM122.793 45.6785C123.012 45.7591 123.191 45.9035 123.275 46.023C123.414 46.2234 123.434 46.4104 123.438 46.7722V47.5858H122.45V47.0723C122.45 47.0477 122.451 47.0218 122.451 46.9951C122.453 46.7541 122.456 46.4408 122.291 46.269C122.148 46.1219 121.929 46.0868 121.57 46.0868H120.518V47.5858H119.53V43.4815H121.801C122.299 43.4815 122.662 43.5035 122.985 43.6752C123.295 43.8622 123.49 44.1184 123.49 44.5866C123.49 45.2417 123.052 45.576 122.793 45.6785ZM124.036 43.4815H127.319V44.3303H125.016V45.0765H127.263V45.9139H125.016V46.7305L127.319 46.7342V47.5858H124.036V43.4815ZM119.068 44.8337C119.068 45.9738 118.215 46.2092 117.355 46.2092H116.127V47.5858H114.215L113.004 46.2271L111.745 47.5858H107.848V43.4815H111.805L113.015 44.8269L114.267 43.4815H117.41C118.191 43.4815 119.068 43.697 119.068 44.8337Z" fill="#006FCF"/>
<path d="M133.207 44.3549H135V45.5228C134.998 45.5207 134.997 45.5187 134.995 45.5166L134.99 45.5099L134.987 45.5065L134.987 45.5063C134.965 45.4768 134.942 45.4476 134.909 45.4212C134.69 45.1963 134.331 45.1041 133.793 45.0908L133.259 45.0766C133.096 45.0766 132.984 45.0661 132.88 45.0301C132.753 44.9845 132.665 44.8792 132.665 44.7244C132.665 44.5942 132.705 44.4955 132.809 44.4291C132.909 44.3616 133.028 44.3549 133.207 44.3549Z" fill="#006FCF"/>
<path fill-rule="evenodd" clip-rule="evenodd" d="M183.273 30.7371L174.654 30.7348C174.653 30.7348 174.652 30.7348 174.652 30.7348C174.645 30.7348 174.639 30.736 174.632 30.736C173.448 30.7726 171.974 31.7299 171.705 32.9104L167.629 51.091C167.36 52.2825 168.091 53.252 169.267 53.2699H178.321C179.479 53.2122 180.604 52.2658 180.868 51.0988L184.944 32.918C185.217 31.7144 184.468 30.7371 183.273 30.7371Z" fill="#01798A"/>
<path fill-rule="evenodd" clip-rule="evenodd" d="M167.629 51.091L171.705 32.9104C171.974 31.7299 173.448 30.7726 174.632 30.736L165.031 30.7325C163.844 30.757 162.35 31.7211 162.082 32.9103L158.004 51.091C157.735 52.2825 158.466 53.252 159.641 53.2698L169.267 53.2699C168.091 53.252 167.36 52.2825 167.629 51.091Z" fill="#024381"/>
<path fill-rule="evenodd" clip-rule="evenodd" d="M158.004 51.091L162.082 32.9103C162.35 31.7211 163.844 30.757 165.031 30.7325L157.122 30.7305C155.928 30.7305 154.397 31.7056 154.124 32.9103L150.047 51.091C150.022 51.202 150.008 51.3107 150 51.4171V51.7544C150.08 52.6229 150.738 53.2554 151.684 53.2699L159.641 53.2698C158.466 53.252 157.735 52.2825 158.004 51.091Z" fill="#DD0228"/>
<path fill-rule="evenodd" clip-rule="evenodd" d="M165.198 43.9803H165.348C165.485 43.9803 165.578 43.9338 165.621 43.8417L166.01 43.2548H167.052L166.835 43.6408H168.083L167.925 44.2322H166.439C166.268 44.4917 166.057 44.6138 165.804 44.5993H165.03L165.198 43.9803ZM165.027 44.8279H167.763L167.589 45.4702H166.488L166.32 46.0903H167.391L167.217 46.7326H166.146L165.897 47.6488C165.836 47.802 165.917 47.8708 166.139 47.8552H167.012L166.85 48.4521H165.174C164.857 48.4521 164.748 48.269 164.848 47.9019L165.166 46.7326H164.481L164.655 46.0903H165.34L165.507 45.4702H164.853L165.027 44.8279ZM169.394 43.2504L169.351 43.6265C169.351 43.6265 169.867 43.2358 170.336 43.2358H172.068L171.406 45.6531C171.351 45.9294 171.115 46.0668 170.699 46.0668H168.736L168.276 47.7642C168.25 47.8552 168.287 47.9018 168.386 47.9018H168.772L168.63 48.4287H167.648C167.271 48.4287 167.115 48.3144 167.177 48.0849L168.476 43.2504H169.394ZM170.861 43.9337H169.315L169.13 44.586C169.13 44.586 169.388 44.3986 169.818 44.3919C170.247 44.3851 170.737 44.3919 170.737 44.3919L170.861 43.9337ZM170.301 45.4468C170.415 45.4625 170.479 45.4169 170.487 45.3093L170.582 44.9654H169.033L168.903 45.4468H170.301ZM169.257 46.2278H170.149L170.133 46.6171H170.37C170.49 46.6171 170.55 46.5783 170.55 46.5019L170.62 46.25H171.362L171.263 46.6171C171.179 46.9233 170.957 47.0831 170.596 47.0987H170.121L170.118 47.7642C170.11 47.8708 170.205 47.9251 170.402 47.9251H170.849L170.705 48.4521H169.633C169.333 48.4665 169.185 48.3222 169.188 48.0161L169.257 46.2278Z" fill="white"/>
<path fill-rule="evenodd" clip-rule="evenodd" d="M158.441 40.0299C158.32 40.6278 158.04 41.0871 157.604 41.4132C157.173 41.7339 156.617 41.8946 155.935 41.8946C155.294 41.8946 154.824 41.7305 154.525 41.401C154.317 41.1669 154.213 40.8696 154.213 40.5102C154.213 40.3616 154.231 40.2018 154.266 40.0299L154.992 36.5023H156.088L155.372 39.99C155.35 40.0865 155.341 40.1764 155.342 40.2573C155.341 40.436 155.385 40.5824 155.474 40.6966C155.604 40.8664 155.815 40.9506 156.108 40.9506C156.445 40.9506 156.723 40.8675 156.939 40.6999C157.155 40.5335 157.296 40.2973 157.359 39.99L158.077 36.5023H159.167L158.441 40.0299Z" fill="white"/>
<path fill-rule="evenodd" clip-rule="evenodd" d="M163.044 38.6422H163.903L163.23 41.7905H162.374L163.044 38.6422ZM163.315 37.4952H164.181L164.019 38.2594H163.153L163.315 37.4952Z" fill="white"/>
<path fill-rule="evenodd" clip-rule="evenodd" d="M164.663 41.5508C164.438 41.3345 164.325 41.0427 164.324 40.6722C164.324 40.6089 164.328 40.5369 164.336 40.458C164.344 40.3782 164.355 40.3005 164.369 40.2284C164.471 39.7171 164.688 39.3111 165.022 39.0115C165.355 38.7109 165.758 38.56 166.229 38.56C166.614 38.56 166.92 38.6687 167.144 38.8862C167.368 39.1047 167.48 39.3997 167.48 39.7748C167.48 39.839 167.476 39.9134 167.467 39.9933C167.457 40.0742 167.445 40.1519 167.431 40.2284C167.332 40.7321 167.116 41.1337 166.782 41.4277C166.448 41.7239 166.047 41.8713 165.579 41.8713C165.192 41.8713 164.887 41.7648 164.663 41.5508ZM166.299 40.9273C166.45 40.762 166.558 40.5113 166.624 40.1774C166.634 40.1253 166.643 40.0709 166.648 40.0166C166.654 39.9633 166.656 39.9134 166.656 39.8679C166.656 39.6738 166.607 39.5229 166.509 39.4164C166.411 39.3088 166.272 39.2556 166.092 39.2556C165.854 39.2556 165.66 39.3398 165.509 39.5085C165.355 39.6772 165.247 39.9323 165.179 40.2717C165.169 40.3238 165.162 40.376 165.155 40.427C165.149 40.4792 165.148 40.528 165.149 40.5723C165.149 40.7654 165.198 40.914 165.296 41.0194C165.394 41.1248 165.532 41.1769 165.715 41.1769C165.954 41.1769 166.147 41.0937 166.299 40.9273Z" fill="white"/>
<path fill-rule="evenodd" clip-rule="evenodd" d="M173.05 44.0068L173.257 43.2725H174.303L174.258 43.542C174.258 43.542 174.793 43.2725 175.178 43.2725C175.563 43.2725 176.472 43.2725 176.472 43.2725L176.267 44.0068H176.063L175.087 47.4702H175.29L175.097 48.158H174.893L174.809 48.4563H173.795L173.88 48.158H171.88L172.075 47.4702H172.275L173.252 44.0068H173.05ZM174.179 44.0069L173.913 44.9442C173.913 44.9442 174.368 44.7679 174.761 44.718C174.848 44.3907 174.961 44.0069 174.961 44.0069H174.179ZM173.789 45.3835L173.522 46.3652C173.522 46.3652 174.027 46.1145 174.374 46.0934C174.474 45.714 174.574 45.3835 174.574 45.3835H173.789ZM173.985 47.4702L174.186 46.758H173.404L173.203 47.4702H173.985ZM176.516 43.227H177.5L177.542 43.593C177.536 43.6862 177.59 43.7306 177.707 43.7306H177.881L177.705 44.3507H176.982C176.706 44.3651 176.564 44.2587 176.551 44.029L176.516 43.227ZM176.228 44.5571H179.415L179.228 45.2227H178.213L178.039 45.8416H179.053L178.865 46.5061H177.736L177.48 46.8956H178.033L178.161 47.6754C178.176 47.7531 178.244 47.7908 178.361 47.7908H178.532L178.352 48.433H177.745C177.43 48.4486 177.267 48.3421 177.254 48.1125L177.107 47.4003L176.605 48.158C176.486 48.3721 176.303 48.4719 176.057 48.4564H175.129L175.309 47.814H175.599C175.718 47.814 175.817 47.7608 175.906 47.6532L176.693 46.5061H175.678L175.866 45.8416H176.967L177.142 45.2227H176.04L176.228 44.5571Z" fill="white"/>
<path fill-rule="evenodd" clip-rule="evenodd" d="M159.451 38.641H160.225L160.136 39.0958L160.248 38.966C160.499 38.6954 160.803 38.5611 161.163 38.5611C161.489 38.5611 161.724 38.6566 161.871 38.8484C162.017 39.0404 162.056 39.3055 161.988 39.6461L161.561 41.7915H160.765L161.151 39.8469C161.19 39.6461 161.179 39.4963 161.118 39.3998C161.058 39.3033 160.942 39.2556 160.775 39.2556C160.571 39.2556 160.398 39.3199 160.258 39.4475C160.117 39.5762 160.024 39.7548 159.979 39.9822L159.624 41.7915H158.826L159.451 38.641Z" fill="white"/>
<path fill-rule="evenodd" clip-rule="evenodd" d="M168.329 38.641H169.104L169.016 39.0958L169.126 38.966C169.377 38.6954 169.683 38.5611 170.041 38.5611C170.367 38.5611 170.602 38.6566 170.749 38.8484C170.893 39.0404 170.935 39.3055 170.864 39.6461L170.44 41.7915H169.643L170.028 39.8469C170.068 39.6461 170.057 39.4963 169.996 39.3998C169.933 39.3033 169.82 39.2556 169.654 39.2556C169.449 39.2556 169.278 39.3199 169.136 39.4475C168.995 39.5762 168.901 39.7548 168.857 39.9822L168.501 41.7915H167.704L168.329 38.641Z" fill="white"/>
<path fill-rule="evenodd" clip-rule="evenodd" d="M172.159 36.6886H174.408C174.84 36.6886 175.175 36.7874 175.405 36.9814C175.634 37.1779 175.748 37.4596 175.748 37.8268V37.8379C175.748 37.9077 175.744 37.9865 175.737 38.0719C175.726 38.1562 175.712 38.2416 175.693 38.3304C175.594 38.8163 175.364 39.2068 175.009 39.503C174.652 39.7981 174.23 39.9467 173.743 39.9467H172.537L172.164 41.7915H171.12L172.159 36.6886ZM172.721 39.0593H173.721C173.982 39.0593 174.189 38.9982 174.34 38.8773C174.489 38.7553 174.588 38.569 174.643 38.3161C174.652 38.2693 174.658 38.2273 174.664 38.1884C174.668 38.1519 174.672 38.1152 174.672 38.0798C174.672 37.8989 174.608 37.768 174.481 37.6859C174.353 37.6026 174.153 37.5628 173.875 37.5628H173.026L172.721 39.0593Z" fill="white"/>
<path fill-rule="evenodd" clip-rule="evenodd" d="M180.423 42.4006C180.093 43.1082 179.778 43.5208 179.593 43.7128C179.408 43.9025 179.042 44.3441 178.159 44.3107L178.235 43.7705C178.978 43.5398 179.38 42.5003 179.609 42.04L179.336 38.6498L179.91 38.6421H180.392L180.444 40.7687L181.347 38.6421H182.262L180.423 42.4006Z" fill="white"/>
<path fill-rule="evenodd" clip-rule="evenodd" d="M177.866 38.8984L177.502 39.1503C177.123 38.8508 176.776 38.6655 176.107 38.9783C175.196 39.4042 174.434 42.6713 176.943 41.5952L177.086 41.766L178.074 41.7915L178.722 38.8229L177.866 38.8984ZM177.304 40.5213C177.146 40.9928 176.792 41.3045 176.514 41.2158C176.237 41.1293 176.138 40.6744 176.299 40.2018C176.457 39.7292 176.814 39.4187 177.089 39.5074C177.366 39.5939 177.466 40.0487 177.304 40.5213Z" fill="white"/>
</svg>
