<svg width="35" height="35" viewBox="0 0 35 35" fill="none" xmlns="http://www.w3.org/2000/svg">
<path d="M17.4994 3.27637C14.0365 3.27651 10.6867 4.50883 8.04934 6.75282C5.41194 8.99681 3.65908 12.106 3.10437 15.5242C2.54967 18.9422 3.22934 22.4463 5.02175 25.4092C6.81416 28.372 9.60234 30.6004 12.8874 31.6956C13.6166 31.8232 13.89 31.3857 13.89 31.0029C13.89 30.6566 13.8718 29.5081 13.8718 28.2868C10.2077 28.9613 9.25981 27.3936 8.96814 26.5732C8.6445 25.7755 8.13145 25.0685 7.47335 24.5133C6.96294 24.2399 6.23377 23.5654 7.45511 23.5472C7.92145 23.5978 8.36874 23.7601 8.75906 24.0203C9.14937 24.2805 9.47121 24.631 9.69731 25.042C9.89677 25.4003 10.165 25.7157 10.4865 25.9702C10.8081 26.2247 11.1767 26.4133 11.5713 26.525C11.9659 26.6367 12.3786 26.6695 12.7859 26.6215C13.1931 26.5735 13.5869 26.4456 13.9447 26.2451C14.0078 25.5037 14.3382 24.8106 14.8744 24.2946C11.6296 23.93 8.23898 22.6722 8.23898 17.0941C8.21847 15.6448 8.7533 14.2425 9.73377 13.1748C9.28793 11.9152 9.34009 10.5328 9.8796 9.31027C9.8796 9.31027 11.1009 8.92744 13.89 10.8051C16.2762 10.1488 18.7954 10.1488 21.1816 10.8051C23.9707 8.90922 25.1921 9.31027 25.1921 9.31027C25.7316 10.5328 25.7839 11.9152 25.3379 13.1748C26.3214 14.2406 26.8566 15.6442 26.8327 17.0941C26.8327 22.6904 23.4238 23.93 20.179 24.2946C20.5271 24.6474 20.7952 25.0709 20.9649 25.5364C21.1348 26.002 21.2025 26.4986 21.1634 26.9925C21.1634 28.9432 21.1452 30.5107 21.1452 31.0029C21.1452 31.3857 21.4186 31.8415 22.1478 31.6956C25.4271 30.5915 28.2073 28.358 29.992 25.3936C31.7769 22.4291 32.45 18.9269 31.8915 15.5121C31.333 12.0973 29.579 8.99213 26.9428 6.75088C24.3066 4.50961 20.9595 3.27818 17.4994 3.27637Z" fill="white"/>
</svg>
