<svg width="35" height="35" viewBox="0 0 35 35" fill="none" xmlns="http://www.w3.org/2000/svg">
<path d="M25.2868 7.96283C24.9408 7.96283 24.6025 8.06546 24.3146 8.25776C24.0268 8.45004 23.8026 8.72336 23.67 9.04313C23.5376 9.3629 23.503 9.71477 23.5705 10.0542C23.6381 10.3937 23.8046 10.7055 24.0495 10.9503C24.2942 11.195 24.606 11.3617 24.9455 11.4292C25.285 11.4967 25.6367 11.4621 25.9565 11.3296C26.2763 11.1972 26.5496 10.9729 26.742 10.6851C26.9342 10.3973 27.0368 10.0589 27.0368 9.71282C27.0368 9.2487 26.8525 8.80358 26.5242 8.47539C26.1961 8.1472 25.751 7.96283 25.2868 7.96283ZM31.9952 11.492C31.9669 10.282 31.7403 9.08487 31.3243 7.94824C30.9535 6.97572 30.3764 6.09511 29.6327 5.36699C28.9105 4.61949 28.0279 4.046 27.0514 3.68991C25.9179 3.26139 24.7193 3.02959 23.5077 3.00449C21.9618 2.91699 21.466 2.91699 17.4993 2.91699C13.5327 2.91699 13.0368 2.91699 11.491 3.00449C10.2794 3.02959 9.08089 3.26139 7.94727 3.68991C6.97263 4.04961 6.09071 4.6226 5.36602 5.36699C4.61852 6.08913 4.04503 6.9718 3.68893 7.94824C3.26042 9.08186 3.02861 10.2803 3.00352 11.492C2.91602 13.0378 2.91602 13.5337 2.91602 17.5003C2.91602 21.467 2.91602 21.9628 3.00352 23.5087C3.02861 24.7202 3.26042 25.9188 3.68893 27.0524C4.04503 28.0289 4.61852 28.9115 5.36602 29.6337C6.09071 30.378 6.97263 30.9511 7.94727 31.3107C9.08089 31.7392 10.2794 31.9711 11.491 31.9962C13.0368 32.0837 13.5327 32.0837 17.4993 32.0837C21.466 32.0837 21.9618 32.0837 23.5077 31.9962C24.7193 31.9711 25.9179 31.7392 27.0514 31.3107C28.0279 30.9546 28.9105 30.3812 29.6327 29.6337C30.3796 28.9083 30.9573 28.0269 31.3243 27.0524C31.7403 25.9158 31.9669 24.7186 31.9952 23.5087C31.9952 21.9628 32.0827 21.467 32.0827 17.5003C32.0827 13.5337 32.0827 13.0378 31.9952 11.492ZM29.3702 23.3337C29.3595 24.2594 29.192 25.1766 28.8743 26.0462C28.6415 26.6808 28.2675 27.2542 27.7806 27.7232C27.3075 28.2052 26.7353 28.5784 26.1035 28.817C25.2339 29.1346 24.3168 29.3022 23.391 29.3128C21.9327 29.3857 21.3931 29.4003 17.5577 29.4003C13.7223 29.4003 13.1827 29.4003 11.7243 29.3128C10.7631 29.3308 9.80604 29.1829 8.89518 28.8753C8.29111 28.6246 7.74508 28.2523 7.29102 27.7816C6.80698 27.313 6.43766 26.7392 6.21185 26.1045C5.85581 25.2225 5.65832 24.2843 5.62852 23.3337C5.62852 21.8753 5.54102 21.3357 5.54102 17.5003C5.54102 13.6649 5.54102 13.1253 5.62852 11.667C5.63505 10.7206 5.80782 9.78275 6.13893 8.89616C6.39567 8.28061 6.78973 7.73191 7.29102 7.29199C7.73407 6.79057 8.28165 6.39235 8.89518 6.12532C9.78411 5.80455 10.721 5.6369 11.666 5.62949C13.1243 5.62949 13.6639 5.54199 17.4993 5.54199C21.3348 5.54199 21.8743 5.54199 23.3327 5.62949C24.2584 5.64011 25.1756 5.80777 26.0452 6.12532C26.7078 6.37127 27.3027 6.77115 27.7806 7.29199C28.2585 7.73996 28.632 8.28764 28.8743 8.89616C29.1985 9.78418 29.3662 10.7217 29.3702 11.667C29.4431 13.1253 29.4577 13.6649 29.4577 17.5003C29.4577 21.3357 29.4431 21.8753 29.3702 23.3337ZM17.4993 10.0191C16.0203 10.022 14.5753 10.4632 13.347 11.287C12.1186 12.1108 11.162 13.2802 10.598 14.6475C10.034 16.0147 9.8879 17.5186 10.1782 18.9687C10.4685 20.419 11.1822 21.7506 12.229 22.7955C13.2759 23.8403 14.6089 24.5514 16.0598 24.8388C17.5106 25.1264 19.0141 24.9773 20.3803 24.4106C21.7465 23.8441 22.914 22.8851 23.7353 21.6551C24.5568 20.4252 24.9952 18.9794 24.9952 17.5003C24.9971 16.5161 24.8044 15.5412 24.4282 14.6318C24.0521 13.7222 23.4998 12.8961 22.8032 12.2008C22.1065 11.5055 21.2792 10.9549 20.3691 10.5804C19.4588 10.206 18.4836 10.0152 17.4993 10.0191ZM17.4993 22.3566C16.5389 22.3566 15.6 22.0718 14.8014 21.5382C14.0028 21.0046 13.3803 20.2461 13.0128 19.3587C12.6452 18.4714 12.549 17.4949 12.7364 16.5528C12.9238 15.6109 13.3863 14.7455 14.0655 14.0664C14.7446 13.3873 15.6099 12.9248 16.5519 12.7374C17.494 12.55 18.4705 12.6462 19.3577 13.0137C20.2451 13.3813 21.0036 14.0037 21.5372 14.8024C22.0708 15.601 22.3556 16.5399 22.3556 17.5003C22.3556 18.1381 22.23 18.7695 21.9859 19.3587C21.7419 19.948 21.3842 20.4832 20.9333 20.9343C20.4822 21.3852 19.947 21.7429 19.3577 21.9869C18.7685 22.231 18.1371 22.3566 17.4993 22.3566Z" fill="white"/>
</svg>
