<svg width="35" height="35" viewBox="0 0 35 35" fill="none" xmlns="http://www.w3.org/2000/svg">
<path d="M29.8519 2.91622H5.14766C4.86996 2.91236 4.59422 2.96324 4.33618 3.06596C4.07816 3.16869 3.84289 3.32123 3.64382 3.51488C3.44475 3.70853 3.28577 3.9395 3.17598 4.19461C3.06618 4.4497 3.00771 4.72394 3.00391 5.00164V29.9975C3.00771 30.2752 3.06618 30.5495 3.17598 30.8045C3.28577 31.0596 3.44475 31.2906 3.64382 31.4843C3.84289 31.6779 4.07816 31.8305 4.33618 31.9331C4.59422 32.0358 4.86996 32.0867 5.14766 32.0829H29.8519C30.1295 32.0867 30.4053 32.0358 30.6633 31.9331C30.9213 31.8305 31.1567 31.6779 31.3557 31.4843C31.5548 31.2906 31.7137 31.0596 31.8235 30.8045C31.9334 30.5495 31.9918 30.2752 31.9956 29.9975V5.00164C31.9918 4.72394 31.9334 4.4497 31.8235 4.19461C31.7137 3.9395 31.5548 3.70853 31.3557 3.51488C31.1567 3.32123 30.9213 3.16869 30.6633 3.06596C30.4053 2.96324 30.1295 2.91236 29.8519 2.91622ZM11.7977 27.3287H7.42266V14.2037H11.7977V27.3287ZM9.61016 12.3662C9.00679 12.3662 8.42813 12.1265 8.00148 11.6999C7.57485 11.2732 7.33516 10.6946 7.33516 10.0912C7.33516 9.48785 7.57485 8.9092 8.00148 8.48255C8.42813 8.0559 9.00679 7.81622 9.61016 7.81622C9.93054 7.77988 10.255 7.81163 10.5623 7.90938C10.8695 8.00713 11.1527 8.16868 11.3932 8.38345C11.6337 8.59822 11.8261 8.86138 11.9579 9.15567C12.0896 9.44996 12.1577 9.76877 12.1577 10.0912C12.1577 10.4137 12.0896 10.7325 11.9579 11.0268C11.8261 11.3211 11.6337 11.5842 11.3932 11.799C11.1527 12.0138 10.8695 12.1753 10.5623 12.273C10.255 12.3708 9.93054 12.4025 9.61016 12.3662ZM27.5769 27.3287H23.2019V20.285C23.2019 18.5204 22.5748 17.3683 20.9852 17.3683C20.4932 17.372 20.0141 17.5263 19.6126 17.8105C19.211 18.0947 18.9062 18.4952 18.7394 18.9579C18.6252 19.3006 18.5758 19.6617 18.5935 20.0225V27.3142H14.2185C14.2185 27.3142 14.2185 15.385 14.2185 14.1891H18.5935V16.0412C18.9909 15.3516 19.569 14.7834 20.2654 14.398C20.9617 14.0125 21.7501 13.8243 22.5456 13.8537C25.4623 13.8537 27.5769 15.735 27.5769 19.7746V27.3287Z" fill="white"/>
</svg>
