<svg width="150" height="40" viewBox="0 0 150 40" fill="none" xmlns="http://www.w3.org/2000/svg">
<path d="M11.313 29.513C9.531 29.513 8.001 29.198 6.723 28.568C5.445 27.938 4.401 27.119 3.591 26.111C2.799 25.103 2.214 24.005 1.836 22.817C1.458 21.629 1.269 20.486 1.269 19.388V18.794C1.269 17.57 1.458 16.364 1.836 15.176C2.232 13.988 2.835 12.908 3.645 11.936C4.455 10.964 5.481 10.19 6.723 9.614C7.983 9.02 9.468 8.723 11.178 8.723C12.96 8.723 14.508 9.047 15.822 9.695C17.154 10.325 18.216 11.225 19.008 12.395C19.8 13.547 20.277 14.897 20.439 16.445H16.578C16.434 15.545 16.11 14.789 15.606 14.177C15.12 13.547 14.499 13.079 13.743 12.773C12.987 12.449 12.132 12.287 11.178 12.287C10.206 12.287 9.342 12.458 8.586 12.8C7.83 13.124 7.2 13.592 6.696 14.204C6.192 14.816 5.805 15.536 5.535 16.364C5.283 17.192 5.157 18.11 5.157 19.118C5.157 20.09 5.283 20.99 5.535 21.818C5.805 22.646 6.201 23.375 6.723 24.005C7.245 24.617 7.884 25.094 8.64 25.436C9.414 25.778 10.305 25.949 11.313 25.949C12.789 25.949 14.031 25.589 15.039 24.869C16.065 24.131 16.686 23.105 16.902 21.791H20.763C20.583 23.195 20.106 24.482 19.332 25.652C18.558 26.822 17.496 27.758 16.146 28.46C14.796 29.162 13.185 29.513 11.313 29.513ZM30.1544 29.513C28.8944 29.513 27.7874 29.297 26.8334 28.865C25.8974 28.433 25.1144 27.857 24.4844 27.137C23.8724 26.399 23.4044 25.58 23.0804 24.68C22.7744 23.78 22.6214 22.862 22.6214 21.926V21.413C22.6214 20.441 22.7744 19.505 23.0804 18.605C23.4044 17.687 23.8724 16.877 24.4844 16.175C25.1144 15.455 25.8884 14.888 26.8064 14.474C27.7244 14.042 28.7864 13.826 29.9924 13.826C31.5764 13.826 32.8994 14.177 33.9614 14.879C35.0414 15.563 35.8514 16.472 36.3914 17.606C36.9314 18.722 37.2014 19.928 37.2014 21.224V22.574H24.2144V20.279H34.8524L33.6914 21.413C33.6914 20.477 33.5564 19.676 33.2864 19.01C33.0164 18.344 32.6024 17.831 32.0444 17.471C31.5044 17.111 30.8204 16.931 29.9924 16.931C29.1644 16.931 28.4624 17.12 27.8864 17.498C27.3104 17.876 26.8694 18.425 26.5634 19.145C26.2754 19.847 26.1314 20.693 26.1314 21.683C26.1314 22.601 26.2754 23.42 26.5634 24.14C26.8514 24.842 27.2924 25.4 27.8864 25.814C28.4804 26.21 29.2364 26.408 30.1544 26.408C31.0724 26.408 31.8194 26.228 32.3954 25.868C32.9714 25.49 33.3404 25.031 33.5024 24.491H36.9584C36.7424 25.499 36.3284 26.381 35.7164 27.137C35.1044 27.893 34.3214 28.478 33.3674 28.892C32.4314 29.306 31.3604 29.513 30.1544 29.513ZM40.2285 29V14.339H43.1985V20.549H43.1175C43.1175 18.443 43.5675 16.85 44.4675 15.77C45.3675 14.69 46.6905 14.15 48.4365 14.15H48.9765V17.417H47.9505C46.6905 17.417 45.7095 17.759 45.0075 18.443C44.3235 19.109 43.9815 20.081 43.9815 21.359V29H40.2285ZM58.0677 29.189C56.7177 29.189 55.6017 29.018 54.7197 28.676C53.8557 28.316 53.2077 27.722 52.7757 26.894C52.3437 26.048 52.1277 24.914 52.1277 23.492L52.1547 10.208H55.6647L55.6377 23.735C55.6377 24.455 55.8267 25.013 56.2047 25.409C56.6007 25.787 57.1587 25.976 57.8787 25.976H60.1737V29.189H58.0677ZM49.8057 17.093V14.339H60.1737V17.093H49.8057ZM72.0459 29V24.653H71.4249V19.82C71.4249 18.974 71.2179 18.344 70.8039 17.93C70.3899 17.516 69.7509 17.309 68.8869 17.309C68.4369 17.309 67.8969 17.318 67.2669 17.336C66.6369 17.354 65.9979 17.381 65.3499 17.417C64.7199 17.435 64.1529 17.462 63.6489 17.498V14.312C64.0629 14.276 64.5309 14.24 65.0529 14.204C65.5749 14.168 66.1059 14.15 66.6459 14.15C67.2039 14.132 67.7259 14.123 68.2119 14.123C69.7239 14.123 70.9749 14.321 71.9649 14.717C72.9729 15.113 73.7289 15.734 74.2329 16.58C74.7549 17.426 75.0159 18.533 75.0159 19.901V29H72.0459ZM67.3209 29.378C66.2589 29.378 65.3229 29.189 64.5129 28.811C63.7209 28.433 63.0999 27.893 62.6499 27.191C62.2179 26.489 62.0019 25.643 62.0019 24.653C62.0019 23.573 62.2629 22.691 62.7849 22.007C63.3249 21.323 64.0719 20.81 65.0259 20.468C65.9979 20.126 67.1319 19.955 68.4279 19.955H71.8299V22.196H68.3739C67.5099 22.196 66.8439 22.412 66.3759 22.844C65.9259 23.258 65.7009 23.798 65.7009 24.464C65.7009 25.13 65.9259 25.67 66.3759 26.084C66.8439 26.498 67.5099 26.705 68.3739 26.705C68.8959 26.705 69.3729 26.615 69.8049 26.435C70.2549 26.237 70.6239 25.913 70.9119 25.463C71.2179 24.995 71.3889 24.365 71.4249 23.573L72.3429 24.626C72.2529 25.652 72.0009 26.516 71.5869 27.218C71.1909 27.92 70.6329 28.46 69.9129 28.838C69.2109 29.198 68.3469 29.378 67.3209 29.378ZM83.7654 29L86.5464 14.825H90.8664L94.0794 29H91.1094L87.8424 14.906H89.4084L86.5194 29H83.7654ZM82.6584 29L82.6314 25.922H85.6284V29H82.6584ZM81.1464 29L77.1504 14.339H80.7954L84.6024 29H81.1464ZM92.0544 29V25.922H95.0514L95.0244 29H92.0544ZM93.2424 29L96.6174 14.339H100.019L96.4824 29H93.2424ZM103.569 29V14.339H107.322V29H103.569ZM101.517 17.147V14.339H107.322V17.147H101.517ZM104.946 12.584C104.208 12.584 103.659 12.395 103.299 12.017C102.957 11.621 102.786 11.126 102.786 10.532C102.786 9.938 102.957 9.452 103.299 9.074C103.659 8.696 104.208 8.507 104.946 8.507C105.684 8.507 106.224 8.696 106.566 9.074C106.908 9.452 107.079 9.938 107.079 10.532C107.079 11.126 106.908 11.621 106.566 12.017C106.224 12.395 105.684 12.584 104.946 12.584Z" fill="white"/>
<mask id="mask0_2210_3907" style="mask-type:alpha" maskUnits="userSpaceOnUse" x="122" y="12" width="16" height="21">
<path d="M122.818 32.5947H137.18V12.8187H122.818V32.5947Z" fill="white"/>
</mask>
<g mask="url(#mask0_2210_3907)">
<path d="M133.689 26.1421V31.9649C133.689 32.3128 133.407 32.5947 133.06 32.5947H126.94C126.592 32.5947 126.31 32.3128 126.31 31.9649V26.1421C124.228 24.8866 122.832 22.6034 122.832 19.9995C122.832 16.0473 126.047 12.832 130 12.832C133.952 12.832 137.167 16.0475 137.167 19.9995C137.167 22.6032 135.771 24.8865 133.689 26.1421H133.689ZM127.57 31.3353H132.43V26.7423C131.67 27.0166 130.852 27.167 130 27.167C129.147 27.167 128.329 27.0166 127.57 26.7421L127.57 31.3353ZM130 14.0917C126.742 14.0917 124.092 16.7419 124.092 19.9997C124.092 23.2572 126.742 25.9077 130 25.9077C133.257 25.9077 135.908 23.2574 135.908 19.9997C135.908 16.7419 133.257 14.0917 130 14.0917Z" fill="white"/>
</g>
<mask id="mask1_2210_3907" style="mask-type:alpha" maskUnits="userSpaceOnUse" x="117" y="19" width="5" height="2">
<path d="M117.404 20.0004C117.404 20.3529 117.69 20.6387 118.043 20.6387H121.063C121.416 20.6387 121.702 20.3529 121.702 20.0004C121.702 19.6479 121.416 19.3621 121.063 19.3621H118.043C117.69 19.3621 117.404 19.6479 117.404 20.0004Z" fill="white"/>
</mask>
<g mask="url(#mask1_2210_3907)">
<path d="M121.687 20.0001C121.687 20.3479 121.405 20.6299 121.057 20.6299H118.034C117.686 20.6299 117.404 20.3479 117.404 20.0001C117.404 19.6523 117.686 19.3703 118.034 19.3703H121.057C121.405 19.3703 121.687 19.6521 121.687 20.0001Z" fill="white"/>
</g>
<mask id="mask2_2210_3907" style="mask-type:alpha" maskUnits="userSpaceOnUse" x="138" y="19" width="5" height="2">
<path d="M138.299 20.6387H142.596V19.3621H138.299V20.6387Z" fill="white"/>
</mask>
<g mask="url(#mask2_2210_3907)">
<path d="M141.967 20.6299H138.944C138.596 20.6299 138.314 20.3479 138.314 20.0001C138.314 19.6523 138.596 19.3703 138.944 19.3703H141.967C142.315 19.3703 142.597 19.6523 142.597 20.0001C142.597 20.3479 142.315 20.6299 141.967 20.6299Z" fill="white"/>
</g>
<mask id="mask3_2210_3907" style="mask-type:alpha" maskUnits="userSpaceOnUse" x="129" y="7" width="2" height="5">
<path d="M129.361 11.7021H130.638V7.40465H129.361V11.7021Z" fill="white"/>
</mask>
<g mask="url(#mask3_2210_3907)">
<path d="M129.999 11.6875C129.651 11.6875 129.369 11.4055 129.369 11.0577V8.03495C129.369 7.68712 129.651 7.40516 129.999 7.40516C130.347 7.40516 130.629 7.68712 130.629 8.03495V11.0577C130.629 11.4055 130.347 11.6875 129.999 11.6875Z" fill="white"/>
</g>
<path d="M123.232 25.8774C123.355 25.7544 123.516 25.6931 123.677 25.6931C123.839 25.6931 124 25.7546 124.123 25.8774C124.369 26.1232 124.369 26.5219 124.123 26.7679L121.985 28.9053C121.739 29.1513 121.34 29.1513 121.095 28.9053C120.849 28.6595 120.849 28.2608 121.095 28.0148L123.232 25.8774Z" fill="white"/>
<path d="M136.768 14.1221C136.522 14.3681 136.124 14.3681 135.878 14.1221C135.632 13.8761 135.632 13.4776 135.878 13.2316L138.015 11.0942C138.138 10.9712 138.299 10.9099 138.461 10.9099C138.622 10.9099 138.783 10.9714 138.906 11.0942C139.152 11.3402 139.152 11.7387 138.906 11.9847L136.768 14.1221Z" fill="white"/>
<path d="M136.323 25.694C136.484 25.694 136.645 25.7555 136.768 25.8783L138.906 28.0158C139.152 28.2616 139.152 28.6603 138.906 28.9063C138.66 29.1523 138.261 29.1523 138.015 28.9063L135.878 26.7689C135.632 26.5231 135.632 26.1243 135.878 25.8783C136.001 25.7553 136.162 25.694 136.323 25.694H136.323Z" fill="white"/>
<path d="M123.232 14.122C123.232 14.122 123.232 14.122 123.232 14.122L121.095 11.9845C120.849 11.7385 120.849 11.34 121.095 11.094C121.218 10.971 121.379 10.9097 121.54 10.9097C121.701 10.9097 121.862 10.9712 121.985 11.094L124.123 13.2314C124.369 13.4775 124.369 13.876 124.123 14.122C123.877 14.3682 123.478 14.3682 123.232 14.122C123.232 14.122 123.232 14.122 123.232 14.122Z" fill="white"/>
</svg>
