<svg width="150" height="40" viewBox="0 0 150 40" fill="none" xmlns="http://www.w3.org/2000/svg">
<path d="M11.313 29.513C9.531 29.513 8.001 29.198 6.723 28.568C5.445 27.938 4.401 27.119 3.591 26.111C2.799 25.103 2.214 24.005 1.836 22.817C1.458 21.629 1.269 20.486 1.269 19.388V18.794C1.269 17.57 1.458 16.364 1.836 15.176C2.232 13.988 2.835 12.908 3.645 11.936C4.455 10.964 5.481 10.19 6.723 9.614C7.983 9.02 9.468 8.723 11.178 8.723C12.96 8.723 14.508 9.047 15.822 9.695C17.154 10.325 18.216 11.225 19.008 12.395C19.8 13.547 20.277 14.897 20.439 16.445H16.578C16.434 15.545 16.11 14.789 15.606 14.177C15.12 13.547 14.499 13.079 13.743 12.773C12.987 12.449 12.132 12.287 11.178 12.287C10.206 12.287 9.342 12.458 8.586 12.8C7.83 13.124 7.2 13.592 6.696 14.204C6.192 14.816 5.805 15.536 5.535 16.364C5.283 17.192 5.157 18.11 5.157 19.118C5.157 20.09 5.283 20.99 5.535 21.818C5.805 22.646 6.201 23.375 6.723 24.005C7.245 24.617 7.884 25.094 8.64 25.436C9.414 25.778 10.305 25.949 11.313 25.949C12.789 25.949 14.031 25.589 15.039 24.869C16.065 24.131 16.686 23.105 16.902 21.791H20.763C20.583 23.195 20.106 24.482 19.332 25.652C18.558 26.822 17.496 27.758 16.146 28.46C14.796 29.162 13.185 29.513 11.313 29.513ZM30.1544 29.513C28.8944 29.513 27.7874 29.297 26.8334 28.865C25.8974 28.433 25.1144 27.857 24.4844 27.137C23.8724 26.399 23.4044 25.58 23.0804 24.68C22.7744 23.78 22.6214 22.862 22.6214 21.926V21.413C22.6214 20.441 22.7744 19.505 23.0804 18.605C23.4044 17.687 23.8724 16.877 24.4844 16.175C25.1144 15.455 25.8884 14.888 26.8064 14.474C27.7244 14.042 28.7864 13.826 29.9924 13.826C31.5764 13.826 32.8994 14.177 33.9614 14.879C35.0414 15.563 35.8514 16.472 36.3914 17.606C36.9314 18.722 37.2014 19.928 37.2014 21.224V22.574H24.2144V20.279H34.8524L33.6914 21.413C33.6914 20.477 33.5564 19.676 33.2864 19.01C33.0164 18.344 32.6024 17.831 32.0444 17.471C31.5044 17.111 30.8204 16.931 29.9924 16.931C29.1644 16.931 28.4624 17.12 27.8864 17.498C27.3104 17.876 26.8694 18.425 26.5634 19.145C26.2754 19.847 26.1314 20.693 26.1314 21.683C26.1314 22.601 26.2754 23.42 26.5634 24.14C26.8514 24.842 27.2924 25.4 27.8864 25.814C28.4804 26.21 29.2364 26.408 30.1544 26.408C31.0724 26.408 31.8194 26.228 32.3954 25.868C32.9714 25.49 33.3404 25.031 33.5024 24.491H36.9584C36.7424 25.499 36.3284 26.381 35.7164 27.137C35.1044 27.893 34.3214 28.478 33.3674 28.892C32.4314 29.306 31.3604 29.513 30.1544 29.513ZM40.2285 29V14.339H43.1985V20.549H43.1175C43.1175 18.443 43.5675 16.85 44.4675 15.77C45.3675 14.69 46.6905 14.15 48.4365 14.15H48.9765V17.417H47.9505C46.6905 17.417 45.7095 17.759 45.0075 18.443C44.3235 19.109 43.9815 20.081 43.9815 21.359V29H40.2285ZM58.0677 29.189C56.7177 29.189 55.6017 29.018 54.7197 28.676C53.8557 28.316 53.2077 27.722 52.7757 26.894C52.3437 26.048 52.1277 24.914 52.1277 23.492L52.1547 10.208H55.6647L55.6377 23.735C55.6377 24.455 55.8267 25.013 56.2047 25.409C56.6007 25.787 57.1587 25.976 57.8787 25.976H60.1737V29.189H58.0677ZM49.8057 17.093V14.339H60.1737V17.093H49.8057Z" fill="#19A68E"/>
<path d="M72.0986 29V24.653H71.4776V19.82C71.4776 18.974 71.2706 18.344 70.8566 17.93C70.4426 17.516 69.8036 17.309 68.9396 17.309C68.4896 17.309 67.9496 17.318 67.3196 17.336C66.6896 17.354 66.0506 17.381 65.4026 17.417C64.7726 17.435 64.2056 17.462 63.7016 17.498V14.312C64.1156 14.276 64.5836 14.24 65.1056 14.204C65.6276 14.168 66.1586 14.15 66.6986 14.15C67.2566 14.132 67.7786 14.123 68.2646 14.123C69.7766 14.123 71.0276 14.321 72.0177 14.717C73.0256 15.113 73.7816 15.734 74.2856 16.58C74.8076 17.426 75.0686 18.533 75.0686 19.901V29H72.0986ZM67.3736 29.378C66.3116 29.378 65.3756 29.189 64.5656 28.811C63.7736 28.433 63.1526 27.893 62.7026 27.191C62.2706 26.489 62.0546 25.643 62.0546 24.653C62.0546 23.573 62.3156 22.691 62.8376 22.007C63.3776 21.323 64.1246 20.81 65.0786 20.468C66.0506 20.126 67.1846 19.955 68.4806 19.955H71.8826V22.196H68.4266C67.5626 22.196 66.8966 22.412 66.4286 22.844C65.9786 23.258 65.7536 23.798 65.7536 24.464C65.7536 25.13 65.9786 25.67 66.4286 26.084C66.8966 26.498 67.5626 26.705 68.4266 26.705C68.9486 26.705 69.4256 26.615 69.8576 26.435C70.3076 26.237 70.6766 25.913 70.9646 25.463C71.2706 24.995 71.4416 24.365 71.4776 23.573L72.3957 24.626C72.3057 25.652 72.0537 26.516 71.6397 27.218C71.2436 27.92 70.6856 28.46 69.9656 28.838C69.2636 29.198 68.3996 29.378 67.3736 29.378ZM83.8181 29L86.5991 14.825H90.9191L94.1321 29H91.1621L87.8951 14.906H89.4611L86.5721 29H83.8181ZM82.7111 29L82.6841 25.922H85.6811V29H82.7111ZM81.1991 29L77.2031 14.339H80.8481L84.6551 29H81.1991ZM92.1071 29V25.922H95.1041L95.0771 29H92.1071ZM93.2951 29L96.6701 14.339H100.072L96.5351 29H93.2951ZM103.622 29V14.339H107.375V29H103.622ZM101.57 17.147V14.339H107.375V17.147H101.57ZM104.999 12.584C104.261 12.584 103.712 12.395 103.352 12.017C103.01 11.621 102.839 11.135 102.839 10.559C102.839 9.947 103.01 9.452 103.352 9.074C103.712 8.696 104.261 8.507 104.999 8.507C105.737 8.507 106.277 8.696 106.619 9.074C106.961 9.452 107.132 9.947 107.132 10.559C107.132 11.135 106.961 11.621 106.619 12.017C106.277 12.395 105.737 12.584 104.999 12.584Z" fill="#7B41B4"/>
<mask id="mask0_2210_6711" style="mask-type:alpha" maskUnits="userSpaceOnUse" x="122" y="12" width="16" height="21">
<path d="M122.818 32.5952H137.18V12.8192H122.818V32.5952Z" fill="white"/>
</mask>
<g mask="url(#mask0_2210_6711)">
<path d="M133.689 26.1426V31.9654C133.689 32.3133 133.407 32.5952 133.06 32.5952H126.94C126.592 32.5952 126.31 32.3133 126.31 31.9654V26.1426C124.228 24.8871 122.832 22.6039 122.832 20C122.832 16.0478 126.047 12.8324 130 12.8324C133.952 12.8324 137.167 16.048 137.167 20C137.167 22.6037 135.771 24.887 133.689 26.1426H133.689ZM127.57 31.3358H132.43V26.7428C131.67 27.0171 130.852 27.1675 130 27.1675C129.147 27.1675 128.329 27.0171 127.57 26.7426L127.57 31.3358ZM130 14.0922C126.742 14.0922 124.092 16.7424 124.092 20.0002C124.092 23.2577 126.742 25.9081 130 25.9081C133.257 25.9081 135.908 23.2579 135.908 20.0002C135.908 16.7424 133.257 14.0922 130 14.0922Z" fill="#19A68E"/>
</g>
<mask id="mask1_2210_6711" style="mask-type:alpha" maskUnits="userSpaceOnUse" x="117" y="19" width="5" height="2">
<path d="M117.404 19.9999C117.404 20.3524 117.69 20.6382 118.043 20.6382H121.063C121.416 20.6382 121.702 20.3524 121.702 19.9999C121.702 19.6474 121.416 19.3616 121.063 19.3616H118.043C117.69 19.3616 117.404 19.6474 117.404 19.9999Z" fill="white"/>
</mask>
<g mask="url(#mask1_2210_6711)">
<path d="M121.687 20.0001C121.687 20.3479 121.405 20.6299 121.057 20.6299H118.034C117.686 20.6299 117.404 20.3479 117.404 20.0001C117.404 19.6523 117.686 19.3703 118.034 19.3703H121.057C121.405 19.3703 121.687 19.6521 121.687 20.0001Z" fill="#19A68E"/>
</g>
<mask id="mask2_2210_6711" style="mask-type:alpha" maskUnits="userSpaceOnUse" x="138" y="19" width="5" height="2">
<path d="M138.299 20.6382H142.596V19.3616H138.299V20.6382Z" fill="white"/>
</mask>
<g mask="url(#mask2_2210_6711)">
<path d="M141.967 20.6299H138.944C138.596 20.6299 138.314 20.3479 138.314 20.0001C138.314 19.6523 138.596 19.3703 138.944 19.3703H141.967C142.315 19.3703 142.597 19.6523 142.597 20.0001C142.597 20.3479 142.315 20.6299 141.967 20.6299Z" fill="#19A68E"/>
</g>
<mask id="mask3_2210_6711" style="mask-type:alpha" maskUnits="userSpaceOnUse" x="129" y="7" width="2" height="5">
<path d="M129.361 11.7021H130.638V7.40465H129.361V11.7021Z" fill="white"/>
</mask>
<g mask="url(#mask3_2210_6711)">
<path d="M129.999 11.687C129.651 11.687 129.369 11.4051 129.369 11.0572V8.03446C129.369 7.68664 129.651 7.40467 129.999 7.40467C130.347 7.40467 130.629 7.68663 130.629 8.03446V11.0572C130.629 11.4051 130.347 11.687 129.999 11.687Z" fill="#19A68E"/>
</g>
<path d="M123.232 25.8778C123.355 25.7548 123.516 25.6935 123.677 25.6935C123.839 25.6935 124 25.755 124.123 25.8778C124.369 26.1236 124.369 26.5224 124.123 26.7684L121.985 28.9058C121.739 29.1518 121.34 29.1518 121.095 28.9058C120.849 28.66 120.849 28.2613 121.095 28.0153L123.232 25.8778Z" fill="#19A68E"/>
<path d="M136.768 14.1216C136.522 14.3677 136.124 14.3677 135.878 14.1216C135.632 13.8756 135.632 13.4771 135.878 13.2311L138.015 11.0937C138.138 10.9707 138.299 10.9094 138.461 10.9094C138.622 10.9094 138.783 10.9709 138.906 11.0937C139.152 11.3397 139.152 11.7382 138.906 11.9842L136.768 14.1216Z" fill="#19A68E"/>
<path d="M136.323 25.6935C136.484 25.6935 136.645 25.755 136.768 25.8778L138.906 28.0153C139.152 28.2611 139.152 28.6598 138.906 28.9058C138.66 29.1518 138.261 29.1518 138.015 28.9058L135.878 26.7684C135.632 26.5226 135.632 26.1239 135.878 25.8778C136.001 25.7548 136.162 25.6935 136.323 25.6935H136.323Z" fill="#19A68E"/>
<path d="M123.232 14.122C123.232 14.122 123.232 14.122 123.232 14.122L121.095 11.9845C120.849 11.7385 120.849 11.34 121.095 11.094C121.218 10.971 121.379 10.9097 121.54 10.9097C121.701 10.9097 121.862 10.9712 121.985 11.094L124.123 13.2314C124.369 13.4775 124.369 13.876 124.123 14.122C123.877 14.3682 123.478 14.3682 123.232 14.122C123.232 14.122 123.232 14.122 123.232 14.122Z" fill="#19A68E"/>
</svg>
