<svg width="822" height="34" viewBox="0 0 822 34" fill="none" xmlns="http://www.w3.org/2000/svg">
<rect width="822" height="34" rx="7" fill="#F8F8F8"/>
<g clip-path="url(#clip0_2210_5472)">
<path d="M363.999 15.3332V13.6665C363.999 10.9082 364.833 8.6665 368.999 8.6665C373.166 8.6665 373.999 10.9082 373.999 13.6665V15.3332M373.166 25.3332H364.833C361.499 25.3332 360.666 24.4998 360.666 21.1665V19.4998C360.666 16.1665 361.499 15.3332 364.833 15.3332H373.166C376.499 15.3332 377.333 16.1665 377.333 19.4998V21.1665C377.333 24.4998 376.499 25.3332 373.166 25.3332Z" stroke="#3E69B5" stroke-width="1.5" stroke-linecap="round" stroke-linejoin="round"/>
<path d="M372.33 20.3335H372.338M368.995 20.3335H369.004M365.662 20.3335H365.669" stroke="#3E69B5" stroke-width="2" stroke-linecap="round" stroke-linejoin="round"/>
</g>
<path d="M389.539 19.3594C389.648 21.3984 391.336 22.6875 393.836 22.6875C396.508 22.6875 398.188 21.3672 398.188 19.2578C398.188 17.6094 397.227 16.6797 394.914 16.1328L393.672 15.8281C392.219 15.4688 391.625 15 391.625 14.2031C391.625 13.2031 392.555 12.5156 393.914 12.5156C395.273 12.5156 396.203 13.1953 396.305 14.3203H398.008C397.953 12.375 396.32 11.0391 393.938 11.0391C391.531 11.0391 389.836 12.375 389.836 14.3203C389.836 15.8906 390.797 16.8594 392.867 17.3594L394.328 17.7109C395.789 18.0703 396.406 18.5938 396.406 19.4688C396.406 20.4766 395.383 21.2109 393.961 21.2109C392.477 21.2109 391.391 20.4766 391.266 19.3594H389.539ZM402.992 15.4922C404.172 15.4922 404.969 16.375 405.008 17.6328H400.898C400.984 16.3906 401.812 15.4922 402.992 15.4922ZM405 20.0859C404.773 20.8047 404.062 21.2891 403.102 21.2891C401.75 21.2891 400.891 20.3438 400.891 18.9141V18.8125H406.695V18.2344C406.695 15.7422 405.273 14.1328 402.992 14.1328C400.672 14.1328 399.188 15.8516 399.188 18.4297C399.188 21.0234 400.648 22.6562 403.062 22.6562C404.945 22.6562 406.367 21.5859 406.602 20.0859H405ZM415.062 17.1094C414.914 15.4922 413.625 14.1328 411.508 14.1328C409.172 14.1328 407.641 15.7812 407.641 18.3906C407.641 21.0469 409.172 22.6562 411.523 22.6562C413.5 22.6562 414.898 21.4688 415.078 19.7188H413.453C413.258 20.6719 412.578 21.2422 411.539 21.2422C410.227 21.2422 409.359 20.1953 409.359 18.3906C409.359 16.625 410.219 15.5391 411.523 15.5391C412.625 15.5391 413.281 16.2344 413.453 17.1094H415.062ZM423.32 14.2812H421.633V19.0703C421.633 20.3516 420.898 21.1953 419.68 21.1953C418.516 21.1953 417.922 20.5234 417.922 19.2734V14.2812H416.234V19.6016C416.234 21.4844 417.328 22.6484 419.117 22.6484C420.375 22.6484 421.211 22.0938 421.664 21.1094H421.703V22.5H423.32V14.2812ZM424.992 22.5H426.68V17.5781C426.68 16.4141 427.352 15.6875 428.438 15.6875C428.766 15.6875 429.062 15.7266 429.195 15.7812V14.2109C429.07 14.1875 428.859 14.1484 428.617 14.1484C427.648 14.1484 426.914 14.7188 426.641 15.6797H426.602V14.2812H424.992V22.5ZM433.32 15.4922C434.5 15.4922 435.297 16.375 435.336 17.6328H431.227C431.312 16.3906 432.141 15.4922 433.32 15.4922ZM435.328 20.0859C435.102 20.8047 434.391 21.2891 433.43 21.2891C432.078 21.2891 431.219 20.3438 431.219 18.9141V18.8125H437.023V18.2344C437.023 15.7422 435.602 14.1328 433.32 14.1328C431 14.1328 429.516 15.8516 429.516 18.4297C429.516 21.0234 430.977 22.6562 433.391 22.6562C435.273 22.6562 436.695 21.5859 436.93 20.0859H435.328Z" fill="#3E69B5"/>
<path d="M438.539 11.2266V22.5H440.289V18.6484H442.711C444.922 18.6484 446.477 17.1328 446.477 14.9297C446.477 12.7344 444.953 11.2266 442.766 11.2266H438.539ZM440.289 12.7031H442.305C443.82 12.7031 444.688 13.5156 444.688 14.9375C444.688 16.3594 443.82 17.1797 442.297 17.1797H440.289V12.7031ZM450.023 21.3047C449.117 21.3047 448.523 20.8359 448.523 20.1172C448.523 19.4141 449.094 18.9688 450.102 18.8984L452.125 18.7734V19.4219C452.125 20.4922 451.203 21.3047 450.023 21.3047ZM449.555 22.6406C450.633 22.6406 451.672 22.0625 452.148 21.1484H452.188V22.5H453.805V16.8359C453.805 15.1875 452.531 14.1328 450.539 14.1328C448.508 14.1328 447.242 15.2266 447.148 16.7109H448.742C448.891 15.9766 449.5 15.5078 450.477 15.5078C451.508 15.5078 452.125 16.0547 452.125 16.9688V17.6016L449.875 17.7344C447.922 17.8438 446.82 18.7266 446.82 20.1641C446.82 21.6406 447.945 22.6406 449.555 22.6406ZM456.258 25.5625C457.969 25.5625 458.773 24.9219 459.477 22.9297L462.562 14.2812H460.781L458.695 20.9688H458.672L456.586 14.2812H454.758L457.727 22.5078C457.727 22.5156 457.578 23 457.578 23.0156C457.32 23.8594 456.906 24.1875 456.117 24.1875C455.977 24.1875 455.695 24.1875 455.57 24.1562V25.5234C455.695 25.5469 456.125 25.5625 456.258 25.5625Z" fill="#26B6EA"/>
<defs>
<clipPath id="clip0_2210_5472">
<rect width="20" height="20" fill="white" transform="translate(359 7)"/>
</clipPath>
</defs>
</svg>
