<svg width="35" height="35" viewBox="0 0 35 35" fill="none" xmlns="http://www.w3.org/2000/svg">
<path d="M32.0827 8.45791C30.9865 8.93346 29.8272 9.24783 28.641 9.39125C29.8926 8.64359 30.8304 7.46738 31.2806 6.08083C30.1046 6.78092 28.8172 7.27417 27.4743 7.53916C26.5767 6.56583 25.3816 5.91792 24.0761 5.69707C22.7708 5.47621 21.4288 5.69488 20.2611 6.3188C19.0933 6.94273 18.1657 7.9366 17.6236 9.14454C17.0815 10.3525 16.9558 11.7062 17.266 12.9933C14.8881 12.873 12.5621 12.2539 10.439 11.176C8.31603 10.0982 6.44351 8.58579 4.9431 6.73708C4.41684 7.65606 4.14032 8.69682 4.14102 9.75583C4.13915 10.7393 4.3805 11.708 4.84358 12.5756C5.30665 13.4432 5.97709 14.1829 6.79518 14.7288C5.84432 14.7028 4.91377 14.4477 4.08268 13.985V14.0579C4.08981 15.4359 4.57267 16.7691 5.44959 17.832C6.32653 18.895 7.54369 19.6224 8.89518 19.8913C8.37494 20.0495 7.8348 20.1331 7.29102 20.1392C6.9146 20.1348 6.53913 20.1006 6.1681 20.0371C6.55297 21.2225 7.29775 22.2583 8.29883 23.0006C9.29991 23.7429 10.5075 24.1547 11.7535 24.1788C9.64943 25.8343 7.05167 26.7379 4.37435 26.7455C3.88689 26.7471 3.3998 26.7178 2.91602 26.658C5.64956 28.4228 8.83511 29.3598 12.0889 29.3559C14.3343 29.3792 16.5618 28.9548 18.6414 28.1075C20.721 27.2604 22.6108 26.0072 24.2007 24.4216C25.7906 22.8358 27.0485 20.9492 27.9011 18.8718C28.7536 16.7944 29.1835 14.5679 29.166 12.3225C29.166 12.0746 29.166 11.8121 29.166 11.5496C30.3104 10.6962 31.2974 9.64998 32.0827 8.45791Z" fill="white"/>
</svg>
