<svg width="102" height="32" viewBox="0 0 102 32" fill="none" xmlns="http://www.w3.org/2000/svg">
<path fill-rule="evenodd" clip-rule="evenodd" d="M53.733 8.30192C53.733 9.42214 52.8214 10.3245 51.6898 10.3245C50.5581 10.3245 49.6465 9.42214 49.6465 8.30192C49.6465 7.1817 50.5267 6.2793 51.6898 6.2793C52.8528 6.31041 53.733 7.21281 53.733 8.30192ZM45.3088 12.3783V12.8761C45.3088 12.8761 44.3343 11.6315 42.2597 11.6315C38.8333 11.6315 36.1614 14.2142 36.1614 17.7927C36.1614 21.34 38.8019 23.9539 42.2597 23.9539C44.3658 23.9539 45.3088 22.6781 45.3088 22.6781V23.2071C45.3088 23.456 45.4974 23.6427 45.7489 23.6427H48.2951V11.9426H45.7489C45.4974 11.9426 45.3088 12.1605 45.3088 12.3783ZM45.309 19.8775C44.8375 20.5621 43.8945 21.1533 42.7628 21.1533C40.751 21.1533 39.2107 19.9086 39.2107 17.7927C39.2107 15.6767 40.751 14.432 42.7628 14.432C43.863 14.432 44.8689 15.0544 45.309 15.7078V19.8775ZM50.181 11.9426H53.1987V23.6427H50.181V11.9426ZM95.258 11.6314C93.1834 11.6314 92.2089 12.8761 92.2089 12.8761V6.3104H89.1912V23.6427H91.7374C91.9889 23.6427 92.1775 23.4249 92.1775 23.2071V22.6781C92.1775 22.6781 93.1519 23.9539 95.2266 23.9539C98.6529 23.9539 101.325 21.34 101.325 17.7927C101.325 14.2453 98.6529 11.6314 95.258 11.6314ZM94.7548 21.1222C93.5917 21.1222 92.6801 20.531 92.2086 19.8464V15.6767C92.6801 15.0543 93.686 14.4009 94.7548 14.4009C96.7666 14.4009 98.3069 15.6456 98.3069 17.7615C98.3069 19.8775 96.7666 21.1222 94.7548 21.1222ZM87.6196 16.7036V23.6738H84.6019V17.0459C84.6019 15.1166 83.9732 14.3387 82.2757 14.3387C81.3641 14.3387 80.4211 14.8054 79.8238 15.49V23.6427H76.8061V11.9426H79.1951C79.4466 11.9426 79.6352 12.1605 79.6352 12.3783V12.8761C80.5154 11.9737 81.6785 11.6315 82.8415 11.6315C84.1618 11.6315 85.262 12.0049 86.1421 12.7517C87.2109 13.623 87.6196 14.7432 87.6196 16.7036ZM69.4813 11.6314C67.4066 11.6314 66.4322 12.8761 66.4322 12.8761V6.3104H63.4145V23.6427H65.9607C66.2121 23.6427 66.4007 23.4249 66.4007 23.2071V22.6781C66.4007 22.6781 67.3752 23.9539 69.4499 23.9539C72.8762 23.9539 75.5481 21.34 75.5481 17.7927C75.5796 14.2453 72.9076 11.6314 69.4813 11.6314ZM68.9788 21.1222C67.8158 21.1222 66.9042 20.531 66.4326 19.8464V15.6767C66.9042 15.0543 67.9101 14.4009 68.9788 14.4009C70.9906 14.4009 72.5309 15.6456 72.5309 17.7615C72.5309 19.8775 70.9906 21.1222 68.9788 21.1222ZM60.8056 11.6315C61.7172 11.6315 62.1887 11.787 62.1887 11.787V14.5565C62.1887 14.5565 59.6739 13.7163 58.1022 15.49V23.6738H55.0845V11.9426H57.6307C57.8822 11.9426 58.0708 12.1605 58.0708 12.3783V12.8761C58.6366 12.2227 59.8625 11.6315 60.8056 11.6315ZM29.4656 22.5847C29.3085 22.2113 29.1513 21.8068 28.9941 21.4645C28.7427 20.9044 28.4912 20.3754 28.2711 19.8775L28.2397 19.8464C26.0707 15.1788 23.7477 10.449 21.2959 5.78142L21.2016 5.59472C20.9501 5.12796 20.6986 4.63008 20.4471 4.13221C20.1328 3.5721 19.8184 2.98087 19.3155 2.42076C18.3096 1.17607 16.8636 0.491489 15.3233 0.491489C13.7516 0.491489 12.3371 1.17607 11.2997 2.35852C10.8282 2.91863 10.4824 3.50986 10.1681 4.06997C9.91662 4.56785 9.66514 5.06572 9.41367 5.53248L9.31937 5.71918C6.89892 10.3868 4.54135 15.1166 2.37238 19.7842L2.34094 19.8464C2.1209 20.3443 1.86943 20.8733 1.61795 21.4334C1.46078 21.7757 1.30361 22.1491 1.14644 22.5536C0.737789 23.7049 0.612052 24.794 0.769224 25.9143C1.115 28.2481 2.68672 30.2084 4.85569 31.0797C5.67298 31.422 6.52171 31.5776 7.40187 31.5776C7.65335 31.5776 7.96769 31.5465 8.21916 31.5154C9.2565 31.3909 10.3253 31.0486 11.3626 30.4574C12.6514 29.7417 13.8773 28.7148 15.2605 27.2212C16.6436 28.7148 17.9009 29.7417 19.1583 30.4574C20.1957 31.0486 21.2644 31.3909 22.3018 31.5154C22.5532 31.5465 22.8676 31.5776 23.119 31.5776C23.9992 31.5776 24.8794 31.422 25.6621 31.0797C27.8625 30.2084 29.4028 28.2169 29.7486 25.9143C30 24.8252 29.8743 23.7361 29.4656 22.5847ZM15.2919 24.2028C13.5944 22.0869 12.4942 20.0954 12.117 18.415C11.9598 17.6993 11.9284 17.077 12.0227 16.5169C12.0856 16.019 12.2742 15.5834 12.5256 15.21C13.1229 14.3698 14.1288 13.8408 15.2919 13.8408C16.4549 13.8408 17.4923 14.3387 18.0581 15.21C18.3096 15.5834 18.4982 16.019 18.561 16.5169C18.6553 17.077 18.6239 17.7304 18.4667 18.415C18.0895 20.0642 16.9893 22.0557 15.2919 24.2028ZM27.8314 25.6653C27.6114 27.2834 26.5112 28.6837 24.9741 29.306C24.2196 29.6172 23.4023 29.7106 22.5851 29.6172C21.7992 29.5239 21.0133 29.2749 20.196 28.8082C19.0644 28.1858 17.9328 27.2212 16.6125 25.7898C18.6872 23.2693 19.9446 20.9666 20.4161 18.9129C20.6361 17.9482 20.6676 17.077 20.5733 16.2679C20.4475 15.49 20.1646 14.7743 19.7245 14.1519C18.7501 12.7517 17.1155 11.9426 15.2923 11.9426C13.4691 11.9426 11.8345 12.7828 10.86 14.1519C10.42 14.7743 10.137 15.49 10.0113 16.2679C9.88557 17.077 9.91701 17.9794 10.1685 18.9129C10.64 20.9666 11.9288 23.3004 13.972 25.8209C12.6832 27.2523 11.5202 28.2169 10.3885 28.8393C9.57123 29.306 8.78537 29.555 7.99951 29.6483C7.15079 29.7417 6.33349 29.6172 5.6105 29.3372C4.07022 28.7148 2.97002 27.3145 2.74998 25.6964C2.65567 24.9185 2.71854 24.1406 3.03289 23.2693C3.12719 22.9581 3.28436 22.6469 3.44153 22.2735C3.66157 21.7757 3.91305 21.2467 4.16452 20.7177L4.19596 20.6554C6.36493 16.019 8.69107 11.2892 11.1115 6.68381L11.2058 6.49711C11.4573 6.03035 11.7088 5.53247 11.9602 5.06572C12.2117 4.56784 12.4946 4.10108 12.8404 3.69656C13.5005 2.94975 14.3807 2.54522 15.3552 2.54522C16.3296 2.54522 17.2098 2.94975 17.8699 3.69656C18.2157 4.10108 18.4986 4.56784 18.7501 5.06572C19.0015 5.53247 19.253 6.03035 19.5045 6.49711L19.5988 6.68381C21.9878 11.3203 24.3139 16.0501 26.4798 20.6866V20.7177C26.7312 21.2156 26.9513 21.7757 27.2028 22.2735C27.3599 22.6469 27.5171 22.9581 27.6114 23.2693C27.8629 24.0783 27.9572 24.8563 27.8314 25.6653Z" fill="#AEB8C9"/>
</svg>
