<svg width="78" height="42" viewBox="0 0 78 42" fill="none" xmlns="http://www.w3.org/2000/svg">
<path fill-rule="evenodd" clip-rule="evenodd" d="M75.8979 39.1046H76.2842L76.8168 40.5353H76.8272L77.3389 39.1046H77.7148V40.8419H77.4642V39.4214H77.4538L76.9212 40.8419H76.6811L76.1589 39.4214H76.1485V40.8419H75.8979V39.1046ZM75.7724 39.1046V39.309H75.1668V40.8419H74.9162V39.309H74.3105V39.1046H75.7724ZM77.7145 13.4238C77.7145 12.5143 76.9627 11.7785 76.0333 11.7785C75.104 11.7785 74.3417 12.5143 74.3417 13.4238V16.8983C74.3417 17.8078 75.104 18.5538 76.0333 18.5538C76.9627 18.5538 77.7145 17.8078 77.7145 16.8983V13.4238ZM68.442 8.87628C68.442 7.96167 67.6901 7.2218 66.7295 7.2218C65.8001 7.2218 65.0483 7.96167 65.0483 8.87628V16.8983C65.0483 17.8078 65.8001 18.5538 66.7295 18.5538C67.6901 18.5538 68.442 17.8078 68.442 16.8983V8.87628ZM59.1381 2.64258C59.1381 1.73206 58.3863 0.992188 57.4569 0.992188C56.5275 0.992188 55.7653 1.73206 55.7653 2.64258V20.1889C55.7653 21.1086 56.5275 21.8444 57.4569 21.8444C58.3863 21.8444 59.1381 21.1086 59.1381 20.1889V2.64258ZM49.8439 8.87628C49.8439 7.96167 49.0921 7.2218 48.1523 7.2218C47.2229 7.2218 46.4711 7.96167 46.4711 8.87628V16.8983C46.4711 17.8078 47.2229 18.5538 48.1523 18.5538C49.0921 18.5538 49.8439 17.8078 49.8439 16.8983V8.87628ZM40.5506 13.4238C40.5506 12.5143 39.7883 11.7785 38.8589 11.7785C37.9296 11.7785 37.1673 12.5143 37.1673 13.4238V16.8983C37.1673 17.8078 37.9296 18.5538 38.8589 18.5538C39.7883 18.5538 40.5506 17.8078 40.5506 16.8983V13.4238ZM31.2676 8.87628C31.2676 7.96167 30.5053 7.2218 29.576 7.2218C28.6362 7.2218 27.8739 7.96167 27.8739 8.87628V16.8983C27.8739 17.8078 28.6362 18.5538 29.576 18.5538C30.5053 18.5538 31.2676 17.8078 31.2676 16.8983V8.87628ZM21.9741 2.64258C21.9741 1.73206 21.2119 0.992188 20.2825 0.992188C19.3427 0.992188 18.5909 1.73206 18.5909 2.64258V20.1889C18.5909 21.1086 19.3427 21.8444 20.2825 21.8444C21.2119 21.8444 21.9741 21.1086 21.9741 20.1889V2.64258ZM12.6799 8.87628C12.6799 7.96167 11.9177 7.2218 10.9883 7.2218C10.0485 7.2218 9.29666 7.96167 9.29666 8.87628V16.8983C9.29666 17.8078 10.0485 18.5538 10.9883 18.5538C11.9177 18.5538 12.6799 17.8078 12.6799 16.8983V8.87628ZM3.38255 13.4238C3.38255 12.5143 2.6234 11.7785 1.69195 11.7785C0.759462 11.7785 -0.000732422 12.5143 -0.000732422 13.4238V16.8983C-0.000732422 17.8078 0.759462 18.5538 1.69195 18.5538C2.6234 18.5538 3.38255 17.8078 3.38255 16.8983V13.4238ZM38.3159 30.6329C38.2637 30.6227 36.8227 30.2344 35.6427 30.2344C34.2852 30.2344 33.5438 30.6738 33.5438 31.3176C33.5438 32.1147 34.5463 32.4008 35.0997 32.5746L36.0395 32.8607C38.2533 33.5556 39.2662 35.0374 39.2662 36.6418C39.2662 39.963 36.2797 41.0769 33.6691 41.0769C31.8626 41.0769 30.1606 40.7601 29.9935 40.7192V37.6739C30.2963 37.7557 31.7269 38.1747 33.2097 38.1747C34.9013 38.1747 35.6845 37.6841 35.6845 36.9381C35.6845 36.2637 35.0162 35.8753 34.1704 35.6199C33.9615 35.5483 33.6483 35.4564 33.4394 35.3848C31.5389 34.8023 29.9622 33.7089 29.9622 31.522C29.9622 29.0489 31.8522 27.3934 34.9953 27.3934C36.6452 27.3934 38.2115 27.7818 38.3159 27.8124V30.6329ZM63.5863 30.7658C61.5605 30.7658 60.0672 32.3191 60.0672 34.2403C60.0672 36.1615 61.5605 37.7148 63.5863 37.7148C65.6121 37.7148 67.1157 36.1615 67.1157 34.2403C67.1157 32.3191 65.6121 30.7658 63.5863 30.7658ZM70.718 34.2403C70.718 38.0214 67.7419 41.0769 63.5859 41.0769C59.4299 41.0769 56.4539 38.0214 56.4539 34.2403C56.4539 30.4592 59.4299 27.3934 63.5859 27.3934C67.7419 27.3934 70.718 30.4592 70.718 34.2403ZM17.2959 31.4198C17.1601 31.3482 16.0637 30.7147 14.4347 30.7147C12.2209 30.7147 10.6964 32.2169 10.6964 34.2403C10.6964 36.2024 12.1583 37.7659 14.4347 37.7659C16.0323 37.7659 17.1497 37.1425 17.2959 37.0608V40.6068C16.8677 40.7295 15.7086 41.0769 14.1841 41.0769C10.3518 41.0769 6.99668 38.4915 6.99668 34.2403C6.99668 30.2855 10.0385 27.3934 14.1841 27.3934C15.7922 27.3934 16.9721 27.7715 17.2959 27.8737V31.4198ZM52.8622 31.4198C52.7264 31.3482 51.63 30.7147 50.001 30.7147C47.7977 30.7147 46.2731 32.2169 46.2731 34.2403C46.2731 36.2024 47.735 37.7659 50.001 37.7659C51.5986 37.7659 52.716 37.1425 52.8622 37.0608V40.6068C52.4445 40.7295 51.2749 41.0769 49.7608 41.0769C45.9285 41.0769 42.5661 38.4915 42.5661 34.2403C42.5661 30.2855 45.6048 27.3934 49.7608 27.3934C51.3585 27.3934 52.5489 27.7715 52.8622 27.8737V31.4198ZM25.3887 40.8419H21.9845V27.6285H25.3887V40.8419Z" fill="#AEB8C9"/>
</svg>
