<svg width="67" height="32" viewBox="0 0 67 32" fill="none" xmlns="http://www.w3.org/2000/svg">
<path fill-rule="evenodd" clip-rule="evenodd" d="M27.5294 0.507408C24.8152 0.696712 22.5181 2.97593 22.5181 6.18652L22.5181 21.4671C22.5181 22.0199 22.1087 22.4969 21.5097 22.4969H16.7334C6.39234 22.5121 7.3097 9.30625 16.1117 9.29111H21.4036V5.45202H15.9298C12.4196 5.45202 9.81915 6.76201 8.06784 8.70805C6.30895 10.6617 5.4295 13.2816 5.4295 15.9016C5.42192 18.5216 6.29379 21.1264 8.09059 23.08C9.88738 25.026 12.6015 26.336 16.324 26.336L25.3383 26.336C25.9297 26.336 26.4225 25.8211 26.4225 25.2305L26.4225 6.59542C26.4149 5.63376 26.9608 4.89169 27.6658 4.67209C28.3709 4.4525 29.1973 4.73267 29.6825 5.42931L29.7052 5.45202C32.2678 9.63943 42.4421 25.9423 42.4572 25.9726C42.7377 26.3663 43.0713 26.442 43.3139 26.3587C43.5565 26.2755 43.7991 26.018 43.7991 25.3668V6.59542C43.7915 5.63376 44.3374 4.89169 45.0425 4.67209C45.7476 4.4525 46.5588 4.73267 47.044 5.42931V5.45202H47.0819C49.6444 9.63943 59.8187 25.9423 59.8339 25.9726C60.1068 26.3663 60.4328 26.442 60.6906 26.3587C60.9483 26.2755 61.1985 26.0331 61.1985 25.3895L61.1985 0.605844H57.332L57.332 15.0687C57.332 15.0687 55.0272 11.1387 51.0849 4.36164C47.2184 -2.27157 39.9174 0.477119 39.9174 6.18652V15.0687C39.9174 15.0687 37.6506 11.1387 33.7007 4.36164C32.0024 1.4615 29.6446 0.348392 27.5294 0.507408ZM16.605 0.605856C-4.89593 0.605856 -4.69123 31.2125 16.8931 31.2277H25.3388C28.9703 31.2277 31.2827 29.0847 31.2827 25.1169V17.3555C31.2827 17.3555 36.0211 25.1851 37.8861 28.2518C41.0475 33.469 48.682 32.4392 48.6593 25.9271V17.3555C48.6593 17.3555 53.3825 25.1851 55.24 28.2518C58.4014 33.469 66.0587 32.4392 66.0359 25.9271V0.598282H62.1694L62.1694 25.3819C62.177 26.336 61.6766 27.0403 60.9867 27.2598C60.2968 27.487 59.5083 27.1993 59.0231 26.5253H59.008V26.4875C59.008 26.4875 48.8261 10.2301 46.2332 5.98966C46.2257 5.98209 46.2181 5.99723 46.2105 5.98966C46.2029 5.98966 46.2181 5.96694 46.2105 5.96694C45.9451 5.61105 45.5964 5.53533 45.3159 5.61862C45.0278 5.70949 44.7473 5.95937 44.7549 6.58786V25.3592C44.7624 26.3058 44.2697 27.0478 43.5873 27.2826C42.905 27.5097 42.1241 27.2068 41.6465 26.5253V26.5026H41.6237C41.6237 26.5026 31.4343 10.2149 28.849 5.98209C28.5761 5.59591 28.2273 5.50504 27.9393 5.59591C27.6512 5.68677 27.3706 5.93665 27.3782 6.56514V6.58786L27.3782 25.2229C27.3782 26.3512 26.4457 27.2977 25.3161 27.2977L16.3093 27.2977C12.3518 27.2977 9.35716 25.8741 7.37841 23.7312C5.39966 21.5883 4.42165 18.7412 4.42165 15.894C4.42923 13.0545 5.39966 10.1846 7.33292 8.04171C9.26619 5.89879 12.1623 4.47523 15.9151 4.47523H21.3889V0.598282L16.605 0.605856Z" fill="#AEB8C9"/>
</svg>
