<svg width="82" height="34" viewBox="0 0 82 34" fill="none" xmlns="http://www.w3.org/2000/svg">
<path fill-rule="evenodd" clip-rule="evenodd" d="M20.969 23.4561V0.673435H25.0808V10.932C25.0808 10.932 26.8363 7.86881 32.4663 7.86881C38.4918 7.86881 42.0501 12.1605 42.0501 17.4892C42.0501 18.1272 42.002 18.7438 41.9087 19.3359C42.8889 16.5929 46.2476 15.2397 51.7764 15.2397H56.7897V14.3463C56.7897 11.8414 54.6073 10.5332 51.7764 10.5332C47.4274 10.5332 47.206 13.3092 47.206 13.3092H42.936C42.936 12.5434 43.4895 7.80501 52.0769 7.80501C55.01 7.80501 58.2283 8.42859 59.8527 10.8755L58.6237 8.55486H63.4314L70.3425 22.5149L77.2377 8.55486H81.6026L69.0615 33.3957H64.491L68.1126 26.4715L60.3776 11.8665C60.7255 12.7098 60.9206 13.7182 60.9174 14.9206V23.8869C60.9174 24.924 61.0597 26.5513 61.0597 26.5513H57.2642C57.2642 26.5513 57.1693 25.243 57.1693 23.9188C57.1693 23.9188 55.2399 27.2533 49.2461 27.2533C44.8654 27.2533 41.6075 25.1154 41.6075 21.1906C41.6075 20.9816 41.6172 20.7782 41.6364 20.5803C40.4954 24.6064 37.0798 27.2214 32.4663 27.2214C27.0419 27.2214 25.0492 24.0784 25.0492 24.0784C25.0492 25.259 24.9069 26.5672 24.9069 26.5672H20.8741C20.8741 26.5672 20.969 24.7484 20.969 23.4561ZM0.615234 17.6169C0.615234 10.246 5.37548 7.80501 11.0846 7.80501C18.8339 7.80501 20.9689 13.038 20.9689 16.4203V18.5741H4.79034C4.79034 22.0203 7.38396 24.4613 10.9739 24.4613C15.3862 24.4613 16.2877 21.3342 16.2877 21.3342H20.5102C20.5102 21.3342 19.9567 27.1416 11.227 27.1416C3.80982 27.1416 0.615234 23.4562 0.615234 17.6169ZM16.6992 15.846C16.6992 12.6711 14.3586 10.5651 10.9426 10.5651C7.93778 10.5651 4.88553 12.4796 4.90134 15.846H16.6992ZM31.438 10.6768C35.3126 10.6768 37.7797 13.5804 37.7797 17.4733C37.7797 21.6533 34.933 24.3815 31.4696 24.3815C27.3261 24.3815 25.0962 21.1268 25.0962 17.5052C25.0962 14.1548 27.0889 10.6768 31.438 10.6768ZM56.8049 17.92V19.1166C56.8049 20.6641 55.856 24.5251 50.2734 24.5251C47.2054 24.5251 45.8927 22.9775 45.8927 21.1906C45.8927 17.9519 50.3051 17.92 56.8049 17.92Z" fill="#AEB8C9"/>
</svg>
