<svg width="24" height="24" viewBox="0 0 24 24" fill="none" xmlns="http://www.w3.org/2000/svg">
<g clip-path="url(#clip0_344_870)">
<path d="M4.583 17.3222C3.553 16.2282 3 15.0012 3 13.0122C3 9.51222 5.457 6.37522 9.03 4.82422L9.923 6.20222C6.588 8.00622 5.936 10.3472 5.676 11.8232C6.213 11.5452 6.916 11.4482 7.605 11.5122C9.409 11.6792 10.831 13.1602 10.831 15.0012C10.831 15.9295 10.4623 16.8197 9.80587 17.4761C9.1495 18.1325 8.25926 18.5012 7.331 18.5012C6.258 18.5012 5.232 18.0112 4.583 17.3222V17.3222ZM14.583 17.3222C13.553 16.2282 13 15.0012 13 13.0122C13 9.51222 15.457 6.37522 19.03 4.82422L19.923 6.20222C16.588 8.00622 15.936 10.3472 15.676 11.8232C16.213 11.5452 16.916 11.4482 17.605 11.5122C19.409 11.6792 20.831 13.1602 20.831 15.0012C20.831 15.9295 20.4623 16.8197 19.8059 17.4761C19.1495 18.1325 18.2593 18.5012 17.331 18.5012C16.258 18.5012 15.232 18.0112 14.583 17.3222V17.3222Z" fill="#191A1B"/>
</g>
<defs>
<clipPath id="clip0_344_870">
<rect width="24" height="24" fill="white"/>
</clipPath>
</defs>
</svg>
