<svg width="91" height="30" viewBox="0 0 91 30" fill="none" xmlns="http://www.w3.org/2000/svg">
<path fill-rule="evenodd" clip-rule="evenodd" d="M11.5791 22.9307C14.9674 22.9307 17.5208 21.8494 19.5195 19.8178C21.5771 17.8088 22.2159 14.9962 22.2159 12.7208C22.2159 12.0142 22.1603 11.3664 22.0492 10.8224H11.5791V13.8562H19.0219C18.7997 15.5628 18.2142 16.8088 17.3291 17.6756C16.2441 18.7298 14.5518 19.8968 11.5791 19.8968C6.99714 19.8968 3.41367 16.2941 3.41367 11.8246C3.41367 7.35511 6.99714 3.75016 11.5791 3.75016C14.0491 3.75016 15.8574 4.70049 17.1882 5.91945L19.383 3.7795C17.5208 2.04813 15.0508 0.718567 11.5791 0.718567C5.30111 0.718567 0.0248413 5.70049 0.0248413 11.8246C0.0248413 17.9465 5.30111 22.9307 11.5791 22.9307ZM30.6885 22.9307C34.7411 22.9307 38.0461 19.8968 38.0461 15.7772C38.0461 11.635 34.7411 8.62826 30.6885 8.62826C26.6289 8.62826 23.3239 11.635 23.3239 15.7772C23.3239 19.8968 26.6289 22.9307 30.6885 22.9307ZM30.6886 20.1135C28.4644 20.1135 26.5457 18.3257 26.5457 15.7772C26.5457 13.2061 28.4644 11.4477 30.6886 11.4477C32.9082 11.4477 34.8246 13.2061 34.8246 15.7772C34.8246 18.3257 32.9082 20.1135 30.6886 20.1135ZM46.7397 22.9307C50.7946 22.9307 54.0997 19.8968 54.0997 15.7772C54.0997 11.635 50.7946 8.62826 46.7397 8.62826C42.6824 8.62826 39.3774 11.635 39.3774 15.7772C39.3774 19.8968 42.6824 22.9307 46.7397 22.9307ZM46.7399 20.1135C44.518 20.1135 42.5993 18.3257 42.5993 15.7772C42.5993 13.2061 44.518 11.4477 46.7399 11.4477C48.9617 11.4477 50.8781 13.2061 50.8781 15.7772C50.8781 18.3257 48.9617 20.1135 46.7399 20.1135ZM62.5149 29.3505C66.2897 29.3505 69.4883 27.1857 69.4883 21.9013V9.06167H66.4309V10.2264H66.3198C65.5954 9.38672 64.2067 8.62826 62.4616 8.62826C58.7932 8.62826 55.4349 11.7705 55.4349 15.8066C55.4349 19.8178 58.7932 22.9307 62.4616 22.9307C64.2067 22.9307 65.5954 22.1722 66.3198 21.3054H66.4309V22.3348C66.4309 25.0729 64.9312 26.5334 62.5149 26.5334C60.5453 26.5334 59.3209 25.1542 58.8187 23.9849L56.0159 25.1248C56.8236 27.0232 58.9599 29.3505 62.5149 29.3505ZM62.7347 20.1135C60.5152 20.1135 58.652 18.3009 58.652 15.8066C58.652 13.2874 60.5152 11.4477 62.7347 11.4477C64.9312 11.4477 66.6531 13.2874 66.6531 15.8066C66.6531 18.3009 64.9312 20.1135 62.7347 20.1135ZM74.9299 1.47704H71.7082V22.4973H74.9299V1.47704ZM83.7613 22.9307C87.1196 22.9307 89.0661 20.9284 89.8715 19.7614L87.3696 18.1384C86.5387 19.3257 85.4 20.1135 83.7613 20.1135C82.1227 20.1135 80.9539 19.3822 80.2063 17.9465L90.0104 13.9894L89.6771 13.179C89.0661 11.5808 87.2029 8.62826 83.4003 8.62826C79.6231 8.62826 76.4847 11.5289 76.4847 15.7772C76.4847 19.7885 79.5953 22.9307 83.7613 22.9307ZM79.6784 15.5628C79.5951 12.802 81.8725 11.3912 83.5112 11.3912C84.7888 11.3912 85.8719 12.0142 86.2353 12.9081L79.6784 15.5628Z" fill="#AEB8C9"/>
</svg>
