<svg width="131" height="19" viewBox="0 0 131 19" fill="none" xmlns="http://www.w3.org/2000/svg">
<path fill-rule="evenodd" clip-rule="evenodd" d="M51.0747 15.7857L39.7839 15.778V10.773C39.7839 10.1048 40.3531 9.53662 41.0284 9.53662H51.0747C52.8257 9.53662 54.239 10.9349 54.239 12.6538C54.239 14.3921 52.8257 15.79 51.0747 15.79V15.7857ZM39.7839 1.94081L51.1258 1.95359C52.7158 1.95359 54.0035 3.22595 54.0035 4.79655C54.0035 6.35825 52.7158 7.62867 51.1258 7.62867H40.8557C40.4827 7.65578 40.1137 7.73906 39.7839 7.87927V1.94042V1.94081ZM54.023 8.56406C55.1732 7.69878 55.9309 6.33462 55.9309 4.78765C55.9309 2.1732 53.7756 0.0429184 51.1217 0.0429184L37.7396 0.0363339V17.6817H51.0746C53.8855 17.6817 56.1626 15.4306 56.1626 12.6496C56.1626 10.9647 55.3185 9.47737 54.023 8.56406ZM113.445 8.87467C113.013 8.87467 112.605 8.96143 112.228 9.11288L112.189 1.9404L123.397 1.93653C125.341 1.93653 126.915 3.48311 126.915 5.40463C126.915 7.32421 125.341 8.88087 123.397 8.88087L113.426 8.87312L113.445 8.87467ZM129.113 15.7853C128.623 16.1754 127.924 16.0967 127.496 15.6498L123.582 10.7486C126.506 10.6595 128.842 8.29834 128.842 5.40038C128.842 2.43425 126.408 0.0359344 123.405 0.0359344H110.163V17.6828H112.208L112.248 11.9338C112.287 11.2931 112.821 10.7594 113.484 10.7594H121.018L125.91 16.8896C127.036 18.2026 129.011 18.4215 130.385 17.3559L129.133 15.7846L129.113 15.7853ZM76.6475 15.6626V10.8473C76.6475 10.1862 77.2168 9.64276 77.8802 9.63037H86.7724V7.60078H77.8488C77.4355 7.60919 77.0276 7.69598 76.6475 7.85642V2.05546H91.1654V0.0363339H74.5864V17.6817H91.7661V15.6629H76.6475V15.6626ZM17.3428 0.079721V10.3593C17.3428 13.8762 15.6233 15.9554 10.458 15.9554C5.27779 15.9554 3.54844 13.8766 3.54844 10.3593V3.13339C3.48288 1.42064 2.05935 0.0448618 0.313904 0.0448618V2.03958C0.946756 2.03958 1.45005 2.52451 1.50973 3.13339V11.0612C1.50973 15.1358 4.74858 18.0322 10.4576 18.0322C16.158 18.0322 19.3843 15.1358 19.3843 11.0612V0.0804956H17.3428V0.079721Z" fill="#AEB8C9"/>
</svg>
