<svg width="41" height="40" viewBox="0 0 41 40" fill="none" xmlns="http://www.w3.org/2000/svg">
<rect x="0.5" width="40" height="40" rx="10" fill="#19A68E" fill-opacity="0.7"/>
<path d="M23.62 18.31C23.62 18.9271 23.437 19.5303 23.0942 20.0434C22.7514 20.5565 22.2641 20.9564 21.694 21.1925C21.1239 21.4287 20.4965 21.4904 19.8913 21.3701C19.2861 21.2497 18.7302 20.9525 18.2938 20.5162C17.8575 20.0798 17.5603 19.5239 17.44 18.9187C17.3196 18.3135 17.3814 17.6861 17.6175 17.116C17.8536 16.5459 18.2535 16.0586 18.7666 15.7158C19.2797 15.373 19.8829 15.19 20.5 15.19C21.3275 15.19 22.1211 15.5187 22.7062 16.1038C23.2913 16.6889 23.62 17.4825 23.62 18.31V18.31Z" stroke="white" stroke-width="1.5"/>
<path d="M12.12 16.49C14.09 7.83 26.92 7.84 28.88 16.5C30.03 21.58 26.87 25.88 24.1 28.54C23.1321 29.4735 21.8398 29.9952 20.495 29.9952C19.1503 29.9952 17.8579 29.4735 16.89 28.54C14.13 25.88 10.97 21.57 12.12 16.49Z" stroke="white" stroke-width="1.5"/>
</svg>
