<svg width="41" height="40" viewBox="0 0 41 40" fill="none" xmlns="http://www.w3.org/2000/svg">
<rect x="0.5" width="40" height="40" rx="10" fill="#19A68E" fill-opacity="0.7"/>
<path fill-rule="evenodd" clip-rule="evenodd" d="M12.5 11H16C16.55 11 17 11.45 17 12C17 13.25 17.2 14.45 17.57 15.57C17.68 15.92 17.6 16.31 17.32 16.59L15.12 18.79C16.56 21.62 18.88 23.93 21.71 25.38L23.91 23.18C24.11 22.99 24.36 22.89 24.62 22.89C24.72 22.89 24.83 22.9 24.93 22.94C26.05 23.31 27.26 23.51 28.5 23.51C29.05 23.51 29.5 23.96 29.5 24.51V28C29.5 28.55 29.05 29 28.5 29C19.11 29 11.5 21.39 11.5 12C11.5 11.45 11.95 11 12.5 11ZM15.04 13C15.1 13.89 15.25 14.76 15.49 15.59L14.29 16.79C13.88 15.59 13.62 14.32 13.53 13H15.04ZM24.9 25.02C25.75 25.26 26.62 25.41 27.5 25.47V26.96C26.18 26.87 24.91 26.61 23.7 26.21L24.9 25.02Z" fill="white"/>
</svg>
