<svg width="118" height="118" viewBox="0 0 118 118" fill="none" xmlns="http://www.w3.org/2000/svg">
<path d="M78.6666 62.6875H39.3333C37.3174 62.6875 35.6458 61.0158 35.6458 59C35.6458 56.9842 37.3174 55.3125 39.3333 55.3125H78.6666C80.6824 55.3125 82.3541 56.9842 82.3541 59C82.3541 61.0158 80.6824 62.6875 78.6666 62.6875Z" fill="#6C6C70"/>
<path d="M59 82.3541C56.9842 82.3541 55.3125 80.6825 55.3125 78.6666V39.3333C55.3125 37.3175 56.9842 35.6458 59 35.6458C61.0158 35.6458 62.6875 37.3175 62.6875 39.3333V78.6666C62.6875 80.6825 61.0158 82.3541 59 82.3541Z" fill="#6C6C70"/>
<path d="M73.7499 111.854H44.2499C17.5524 111.854 6.14575 100.447 6.14575 73.75V44.25C6.14575 17.5525 17.5524 6.14581 44.2499 6.14581H73.7499C100.447 6.14581 111.854 17.5525 111.854 44.25V73.75C111.854 100.447 100.447 111.854 73.7499 111.854ZM44.2499 13.5208C21.5841 13.5208 13.5208 21.5841 13.5208 44.25V73.75C13.5208 96.4158 21.5841 104.479 44.2499 104.479H73.7499C96.4157 104.479 104.479 96.4158 104.479 73.75V44.25C104.479 21.5841 96.4157 13.5208 73.7499 13.5208H44.2499Z" fill="#6C6C70"/>
</svg>
