<svg width="12" height="9" viewBox="0 0 12 9" fill="none" xmlns="http://www.w3.org/2000/svg">
<path d="M11.6054 3.27718V3.27748L10.1566 8.94701H1.68324L0.234436 3.27748V3.27718C0.499917 3.20973 0.72248 3.03469 0.853075 2.80139C1.27368 2.96786 1.73229 3.0586 2.21206 3.0586C3.79176 3.0586 5.14032 2.07086 5.67435 0.679996V0.679382C5.75406 0.694097 5.83591 0.701762 5.9199 0.701762C6.0039 0.701762 6.08575 0.694097 6.16546 0.679382V0.679996C6.69949 2.07117 8.04805 3.0586 9.62775 3.0586C10.1075 3.0586 10.5661 2.96786 10.9867 2.80139C11.1173 3.03469 11.3399 3.20973 11.6054 3.27718Z" fill="#FFC035"/>
</svg>
