<svg width="21" height="14" viewBox="0 0 21 14" fill="none" xmlns="http://www.w3.org/2000/svg">
<path d="M18.07 1.34955H13V2.75955H18.09L18.07 1.34955ZM17 11.0495C16.6154 11.3044 16.1612 11.4336 15.7 11.4195C15.3947 11.4513 15.0862 11.4198 14.7937 11.3269C14.5011 11.234 14.2309 11.0817 14 10.8795C13.573 10.3954 13.3507 9.76444 13.38 9.11954H20C20.0477 8.44814 19.9904 7.77334 19.83 7.11954C19.6749 6.49754 19.4034 5.91054 19.03 5.38954C18.6541 4.88415 18.1686 4.47046 17.61 4.17955C16.9884 3.87309 16.3029 3.71884 15.61 3.72955C14.9583 3.72477 14.3123 3.85058 13.71 4.09955C13.1585 4.33204 12.6588 4.67198 12.24 5.09954C11.8224 5.53564 11.499 6.05304 11.29 6.61954C11.0657 7.23114 10.9539 7.87814 10.96 8.52954C10.9497 9.19014 11.0581 9.84724 11.28 10.4695C11.4685 11.033 11.7677 11.5532 12.16 11.9995C12.5659 12.4377 13.0648 12.7794 13.62 12.9995C14.2391 13.2354 14.8976 13.3508 15.56 13.3395C16.4894 13.3685 17.407 13.1252 18.2 12.6395C19.0009 12.0704 19.5775 11.239 19.83 10.2895H17.62C17.5017 10.6036 17.284 10.8705 17 11.0495ZM13.57 6.92954C13.6478 6.68024 13.777 6.44994 13.9493 6.25364C14.1215 6.05724 14.3329 5.89924 14.57 5.78954C14.884 5.64824 15.2258 5.57984 15.57 5.58954C15.8186 5.56834 16.0689 5.60114 16.3036 5.68564C16.5384 5.77024 16.7521 5.90464 16.93 6.07954C17.2698 6.49544 17.4878 6.99734 17.56 7.52954H13.41C13.4262 7.32634 13.463 7.12534 13.52 6.92954H13.57ZM8.28 6.44954C8.789 6.23764 9.2312 5.89214 9.56 5.44954C9.8622 4.97955 10.0124 4.42788 9.99 3.86955C10.0096 3.36038 9.9103 2.85366 9.7 2.38955C9.5233 1.98746 9.2397 1.64157 8.88 1.38955C8.4987 1.12752 8.0656 0.950209 7.61 0.869549C7.07082 0.756459 6.52087 0.702809 5.97 0.709549H0V13.2895H6.1C6.65669 13.2899 7.21116 13.2193 7.75 13.0795C8.2607 12.9474 8.7446 12.7274 9.18 12.4295C9.6017 12.1372 9.9452 11.7457 10.18 11.2895C10.4399 10.7793 10.5672 10.2118 10.55 9.63954C10.5689 8.93024 10.37 8.23224 9.98 7.63954C9.5606 7.04344 8.9385 6.62044 8.23 6.44954H8.28ZM2.77 2.85955H5.36C5.59795 2.85925 5.83548 2.87933 6.07 2.91955C6.28595 2.95155 6.49334 3.02634 6.68 3.13955C6.86035 3.24156 7.00648 3.39465 7.1 3.57955C7.21582 3.80126 7.27102 4.04964 7.26 4.29955C7.27863 4.51478 7.24572 4.73136 7.16399 4.93135C7.08225 5.13134 6.95405 5.30894 6.79 5.44954C6.43212 5.69554 6.00388 5.81844 5.57 5.79954H2.77V2.85955ZM7.61 10.2995C7.50726 10.5033 7.35189 10.6759 7.16 10.7995C6.9603 10.9237 6.74027 11.0117 6.51 11.0595C6.25406 11.1168 5.99224 11.1436 5.73 11.1395H2.73V7.68954H5.73C6.24482 7.66704 6.75322 7.81074 7.18 8.09954C7.37281 8.27254 7.52217 8.48854 7.61599 8.73004C7.7098 8.97154 7.74543 9.23174 7.72 9.48954C7.74704 9.76444 7.70936 10.0418 7.61 10.2995Z" fill="black"/>
</svg>
