<svg width="20" height="20" viewBox="0 0 20 20" fill="none" xmlns="http://www.w3.org/2000/svg">
<path d="M10 0.246094C7.6255 0.246194 5.32849 1.09121 3.51999 2.62994C1.71149 4.16868 0.509531 6.30072 0.129161 8.64459C-0.251209 10.9884 0.214851 13.3912 1.44393 15.4229C2.67301 17.4545 4.58491 18.9826 6.83755 19.7336C7.33755 19.8211 7.52505 19.5211 7.52505 19.2586C7.52505 19.0211 7.51254 18.2336 7.51254 17.3961C5.00003 17.8586 4.35003 16.7836 4.15003 16.2211C3.9281 15.6741 3.5763 15.1893 3.12503 14.8086C2.77503 14.6211 2.27503 14.1586 3.11252 14.1461C3.4323 14.1808 3.73901 14.2921 4.00666 14.4705C4.2743 14.6489 4.49499 14.8893 4.65003 15.1711C4.7868 15.4168 4.97071 15.6331 5.19122 15.8076C5.41173 15.9821 5.6645 16.1114 5.93506 16.188C6.20562 16.2646 6.48864 16.2871 6.76791 16.2542C7.04717 16.2213 7.3172 16.1336 7.56251 15.9961C7.6058 15.4877 7.83237 15.0124 8.2 14.6586C5.97503 14.4086 3.65003 13.5461 3.65003 9.72109C3.63597 8.72729 4.00271 7.7657 4.67503 7.03362C4.36931 6.16984 4.40508 5.22191 4.77503 4.38362C4.77503 4.38362 5.6125 4.12111 7.52503 5.40862C9.1613 4.9586 10.8887 4.9586 12.525 5.40862C14.4375 4.10862 15.275 4.38362 15.275 4.38362C15.645 5.2219 15.6808 6.16985 15.375 7.03362C16.0494 7.76445 16.4164 8.72689 16.4 9.72109C16.4 13.5586 14.0625 14.4086 11.8375 14.6586C12.0762 14.9005 12.26 15.1909 12.3764 15.5101C12.4929 15.8294 12.5393 16.1699 12.5125 16.5086C12.5125 17.8462 12.5 18.9211 12.5 19.2586C12.5 19.5211 12.6875 19.8336 13.1875 19.7336C15.4362 18.9765 17.3426 17.4449 18.5664 15.4122C19.7903 13.3794 20.2519 10.9779 19.8689 8.63629C19.4859 6.29474 18.2832 4.16547 16.4755 2.62861C14.6678 1.09174 12.3727 0.247334 10 0.246094Z" fill="black"/>
</svg>
