<svg width="20" height="20" viewBox="0 0 20 20" fill="none" xmlns="http://www.w3.org/2000/svg">
<path d="M18.4706 0.000140388H1.53055C1.34013 -0.00250961 1.15105 0.0323804 0.974107 0.10282C0.797177 0.17326 0.635847 0.27786 0.499347 0.41065C0.362837 0.54344 0.253827 0.70182 0.178537 0.87675C0.103247 1.05167 0.0631569 1.23972 0.0605469 1.43014V18.5702C0.0631569 18.7605 0.103247 18.9487 0.178537 19.1236C0.253827 19.2985 0.362837 19.4569 0.499347 19.5897C0.635847 19.7225 0.797177 19.8271 0.974107 19.8975C1.15105 19.9679 1.34013 20.0028 1.53055 20.0002H18.4706C18.661 20.0028 18.8501 19.9679 19.027 19.8975C19.2039 19.8271 19.3653 19.7225 19.5018 19.5897C19.6383 19.4569 19.7473 19.2985 19.8226 19.1236C19.8979 18.9487 19.938 18.7605 19.9406 18.5702V1.43014C19.938 1.23972 19.8979 1.05167 19.8226 0.87675C19.7473 0.70182 19.6383 0.54344 19.5018 0.41065C19.3653 0.27786 19.2039 0.17326 19.027 0.10282C18.8501 0.0323804 18.661 -0.00250961 18.4706 0.000140388ZM6.09055 16.7402H3.09055V7.74014H6.09055V16.7402ZM4.59055 6.48014C4.17681 6.48014 3.78002 6.31578 3.48746 6.02322C3.19491 5.73067 3.03055 5.33387 3.03055 4.92014C3.03055 4.5064 3.19491 4.10961 3.48746 3.81705C3.78002 3.52449 4.17681 3.36014 4.59055 3.36014C4.81024 3.33522 5.03272 3.35699 5.24342 3.42402C5.45412 3.49105 5.64829 3.60183 5.81321 3.7491C5.97812 3.89637 6.11007 4.07682 6.20042 4.27862C6.29076 4.48042 6.33747 4.69903 6.33747 4.92014C6.33747 5.14124 6.29076 5.35985 6.20042 5.56165C6.11007 5.76346 5.97812 5.9439 5.81321 6.09118C5.64829 6.23845 5.45412 6.34922 5.24342 6.41625C5.03272 6.48328 4.81024 6.50505 4.59055 6.48014ZM16.9106 16.7402H13.9106V11.9102C13.9106 10.7002 13.4806 9.91015 12.3906 9.91015C12.0532 9.91265 11.7247 10.0185 11.4494 10.2134C11.174 10.4082 10.965 10.6829 10.8506 11.0002C10.7723 11.2352 10.7384 11.4827 10.7506 11.7302V16.7302H7.75055C7.75055 16.7302 7.75055 8.55015 7.75055 7.73014H10.7506V9.00015C11.0231 8.52725 11.4195 8.13765 11.897 7.87334C12.3745 7.60902 12.9151 7.47999 13.4606 7.50014C15.4606 7.50014 16.9106 8.79015 16.9106 11.5602V16.7402Z" fill="#222222"/>
</svg>
