<svg width="20" height="18" viewBox="0 0 20 18" fill="none" xmlns="http://www.w3.org/2000/svg">
<path d="M20 2.80021C19.2483 3.1263 18.4534 3.34187 17.64 3.44021C18.4982 2.92753 19.1413 2.12099 19.45 1.17021C18.6436 1.65027 17.7608 1.9885 16.84 2.17021C16.2245 1.50278 15.405 1.0585 14.5098 0.907064C13.6147 0.755614 12.6945 0.905564 11.8938 1.33339C11.093 1.76123 10.4569 2.44274 10.0852 3.27104C9.7135 4.09935 9.6273 5.0276 9.84 5.91021C8.2094 5.82773 6.61444 5.40316 5.15865 4.66407C3.70287 3.92498 2.41885 2.8879 1.39 1.62021C1.02914 2.25037 0.83952 2.96403 0.84 3.69021C0.83872 4.36459 1.00422 5.02882 1.32176 5.62377C1.63929 6.21872 2.09902 6.72592 2.66 7.10024C2.00798 7.08244 1.36989 6.9075 0.8 6.59021V6.64021C0.80489 7.58514 1.13599 8.49934 1.73731 9.22814C2.33864 9.95704 3.17326 10.4558 4.1 10.6402C3.74326 10.7487 3.37288 10.806 3 10.8102C2.74189 10.8072 2.48442 10.7837 2.23 10.7402C2.49391 11.553 3.00462 12.2633 3.69107 12.7723C4.37753 13.2813 5.20558 13.5637 6.06 13.5802C4.6172 14.7154 2.83588 15.335 1 15.3402C0.66574 15.3413 0.33174 15.3212 0 15.2802C1.87443 16.4904 4.05881 17.1329 6.29 17.1302C7.82969 17.1462 9.3571 16.8552 10.7831 16.2742C12.2091 15.6933 13.505 14.834 14.5952 13.7467C15.6854 12.6593 16.548 11.3656 17.1326 9.94114C17.7172 8.51664 18.012 6.98993 18 5.45021C18 5.2802 18 5.10021 18 4.92021C18.7847 4.33502 19.4615 3.61763 20 2.80021Z" fill="#222222"/>
</svg>
