<svg width="20" height="20" viewBox="0 0 20 20" fill="none" xmlns="http://www.w3.org/2000/svg">
<path d="M19.4102 6.64013C19.4102 6.64013 19.4102 6.64013 19.4102 6.59013C18.7055 4.66636 17.4271 3.00542 15.7476 1.832C14.0682 0.658577 12.0689 0.0292969 10.0202 0.0292969C7.97144 0.0292969 5.97213 0.658577 4.2927 1.832C2.61328 3.00542 1.33479 4.66636 0.630192 6.59013C0.630192 6.59013 0.630192 6.59013 0.630192 6.64013C-0.156678 8.81103 -0.156678 11.1892 0.630192 13.3601C0.630192 13.3601 0.630192 13.3601 0.630192 13.4101C1.33479 15.3339 2.61328 16.9948 4.2927 18.1682C5.97213 19.3417 7.97144 19.9709 10.0202 19.9709C12.0689 19.9709 14.0682 19.3417 15.7476 18.1682C17.4271 16.9948 18.7055 15.3339 19.4102 13.4101C19.4102 13.4101 19.4102 13.4101 19.4102 13.3601C20.197 11.1892 20.197 8.81103 19.4102 6.64013ZM2.26019 12.0001C1.91342 10.6893 1.91342 9.31093 2.26019 8.00013H4.12019C3.96022 9.32863 3.96022 10.6716 4.12019 12.0001H2.26019ZM3.08019 14.0001H4.48019C4.71491 14.8919 5.0504 15.7542 5.48019 16.5701C4.49949 15.902 3.67969 15.0242 3.08019 14.0001ZM4.48019 6.00013H3.08019C3.67106 4.97922 4.48038 4.1016 5.45019 3.43013C5.03075 4.24738 4.70533 5.10955 4.48019 6.00013ZM9.00024 17.7001C7.77196 16.7988 6.90934 15.4853 6.57019 14.0001H9.00024V17.7001ZM9.00024 12.0001H6.14019C5.95358 10.6733 5.95358 9.32693 6.14019 8.00013H9.00024V12.0001ZM9.00024 6.00013H6.57019C6.90934 4.5149 7.77196 3.20145 9.00024 2.30013V6.00013ZM16.9202 6.00013H15.5202C15.2854 5.10829 14.9499 4.24607 14.5202 3.43013C15.5009 4.0982 16.3207 4.97607 16.9202 6.00013ZM11.0002 2.30013C12.2284 3.20145 13.091 4.5149 13.4302 6.00013H11.0002V2.30013ZM11.0002 17.7001V14.0001H13.4302C13.091 15.4853 12.2284 16.7988 11.0002 17.7001ZM13.8602 12.0001H11.0002V8.00013H13.8602C14.0468 9.32693 14.0468 10.6733 13.8602 12.0001ZM14.5502 16.5701C14.9799 15.7542 15.3154 14.8919 15.5502 14.0001H16.9502C16.3507 15.0242 15.5309 15.902 14.5502 16.5701ZM17.7402 12.0001H15.8802C15.9615 11.3366 16.0016 10.6686 16.0002 10.0001C16.0013 9.33163 15.9612 8.66373 15.8802 8.00013H17.7402C18.0869 9.31093 18.0869 10.6893 17.7402 12.0001Z" fill="#222222"/>
</svg>
